<svg xmlns="http://www.w3.org/2000/svg" xmlns:xlink="http://www.w3.org/1999/xlink" width="72" height="72" viewBox="0 0 72 72"><defs><circle id="b" cx="32" cy="32" r="32"/><filter id="a" width="121.9%" height="121.9%" x="-10.9%" y="-7.8%" filterUnits="objectBoundingBox"><feOffset dy="2" in="SourceAlpha" result="shadowOffsetOuter1"/><feGaussianBlur in="shadowOffsetOuter1" result="shadowBlurOuter1" stdDeviation="2"/><feColorMatrix in="shadowBlurOuter1" values="0 0 0 0 0 0 0 0 0 0 0 0 0 0 0 0 0 0 0.0599524457 0"/></filter></defs><g fill="none" fill-rule="evenodd"><g transform="translate(4 2)"><use fill="#000" filter="url(#a)" xlink:href="#b"/><use fill="#FFF" xlink:href="#b"/></g><path fill="#BC5FD4" d="M52.717 33.27c.141.262.179.552.127.824.051.27.014.56-.127.822-.065.122-1.644 3.03-4.484 5.966-3.842 3.97-8.17 6.069-12.517 6.069-4.347 0-8.675-2.099-12.518-6.07-2.84-2.935-4.418-5.843-4.484-5.965a1.242 1.242 0 0 1-.127-.823 1.244 1.244 0 0 1 .127-.823c.066-.122 1.644-3.03 4.484-5.965 3.843-3.97 8.17-6.07 12.518-6.07 4.346 0 8.675 2.1 12.517 6.07 2.84 2.935 4.419 5.843 4.484 5.965zM35.716 44.456c7.972 0 13.482-8.496 14.596-10.363C49.2 32.228 43.689 23.73 35.716 23.73c-7.995 0-13.488 8.496-14.597 10.362 1.113 1.865 6.623 10.364 14.597 10.364zm1.956-10.466c0 .599.485 1.248 1.083 1.248h2.658c-.495 2.495-2.86 4.674-5.705 4.674-3.204 0-5.802-2.674-5.802-5.878 0-3.205 2.598-5.862 5.802-5.862 2.824 0 5.175 2.075 5.695 4.57h-2.648c-.598 0-1.083.65-1.083 1.248z"/></g></svg>