<svg xmlns="http://www.w3.org/2000/svg" width="27" height="27" viewBox="0 0 27 27" enable-background="new 0 0 30 30"><path d="M13.5 0C6.056 0 0 6.056 0 13.5S6.056 27 13.5 27c2.367 0 4.59-.617 6.527-1.69 2.238-1.203 4.08-3.045 5.282-5.283C26.38 18.09 27 15.867 27 13.5 27 6.056 20.944 0 13.5 0zm6.457 17.828c.585.585.585 1.536 0 2.12-.283.284-.66.44-1.06.44-.402 0-.778-.156-1.062-.44L13.5 15.615 9.165 19.95c-.566.565-1.555.565-2.12 0-.586-.586-.586-1.537 0-2.122l4.334-4.335-4.337-4.335c-.585-.585-.585-1.536 0-2.12.566-.567 1.555-.567 2.12 0L13.5 11.37l4.335-4.335c.566-.566 1.555-.566 2.12 0 .586.585.586 1.536 0 2.12L15.62 13.49l4.338 4.336z" fill="#fff"/></svg>