<svg width="24" height="20" viewBox="0 0 24 20" xmlns="http://www.w3.org/2000/svg"><title>F51BFBC0-4085-46A4-A99F-0BE995488FE2</title><g fill-rule="nonzero" fill="#FFF"><path d="M17 0c-.905 0-1.73.312-2.4.818A6.952 6.952 0 0 1 16 5v1c0 .953-.193 1.862-.54 2.691A4 4 0 0 0 21 5V4a4 4 0 0 0-4-4zM9 11a5 5 0 0 1-5-5V5a5 5 0 0 1 10 0v1a5 5 0 0 1-5 5zM22.839 12.405C21.555 11.815 19.354 11 17 11c-1.195 0-2.35.211-3.367.495.376.078.753.157 1.13.253 2.911.742 4.97 3.275 5.192 6.252H23a1 1 0 0 0 1-1v-2.779c0-.782-.45-1.49-1.161-1.816zM17 20H1a1 1 0 0 1-1-1v-.475c0-2.275 1.527-4.277 3.731-4.839C5.205 13.31 7.021 13 9 13s3.795.31 5.269.686C16.473 14.248 18 16.25 18 18.525V19a1 1 0 0 1-1 1z"/></g></svg>