<?xml version="1.0" encoding="UTF-8" standalone="no"?>
<svg width="10px" height="10px" viewBox="0 0 10 10" version="1.1" xmlns="http://www.w3.org/2000/svg" xmlns:xlink="http://www.w3.org/1999/xlink">
    <!-- Generator: sketchtool 3.7.2 (28276) - http://www.bohemiancoding.com/sketch -->
    <title>4D2C21F2-3CC5-4252-8450-15E1738CD9C6</title>
    <desc>Created with sketchtool.</desc>
    <defs></defs>
    <g id="Page-1" stroke="none" stroke-width="1" fill="none" fill-rule="evenodd">
        <g id="alura-interna-forum" transform="translate(-516.000000, -2400.000000)" fill="#719DE9">
            <g id="Group-3" transform="translate(191.000000, 2390.010000)">
                <path d="M334.891701,16.0422535 C334.675908,15.7230047 334.460115,15.4037559 334.244322,15.084507 C334.185469,15.0093897 334.205087,14.971831 334.244322,14.8967136 C334.460115,14.5962441 334.675908,14.2769953 334.872083,13.9577465 C335.127111,13.5821596 334.989788,13.2253521 334.558202,13.0751174 C334.185469,12.943662 333.832354,12.8122066 333.479238,12.6807512 C333.400768,12.6619718 333.38115,12.6056338 333.361533,12.5305164 C333.341915,12.1549296 333.322298,11.7793427 333.30268,11.4037559 C333.283062,11.0093897 332.949564,10.7652582 332.537596,10.8779343 C332.164863,10.971831 331.772512,11.0657277 331.399779,11.1784038 C331.321309,11.1971831 331.262456,11.1784038 331.203603,11.1220657 C330.968193,10.8215962 330.713165,10.5399061 330.458137,10.2394366 C330.183492,9.92018779 329.791141,9.92018779 329.516495,10.2394366 C329.281085,10.5211268 329.026057,10.8215962 328.790646,11.1032864 C328.731794,11.1784038 328.672941,11.1971831 328.574853,11.1784038 C328.20212,11.084507 327.829387,10.9906103 327.554741,10.915493 C327.025068,10.8028169 326.730805,10.9906103 326.69157,11.4037559 C326.671952,11.7793427 326.652335,12.1737089 326.632717,12.5492958 C326.632717,12.6244131 326.593482,12.6619718 326.515012,12.6995305 C326.142279,12.8309859 325.769545,12.9624413 325.396812,13.1126761 C325.004461,13.2629108 324.886756,13.6197183 325.122167,13.9577465 C325.33796,14.2769953 325.553753,14.5962441 325.769545,14.915493 C325.828398,14.9906103 325.808781,15.028169 325.769545,15.1032864 C325.553753,15.4225352 325.318342,15.7605634 325.102549,16.0798122 C324.886756,16.399061 325.024079,16.7558685 325.396812,16.9061033 C325.769545,17.0375587 326.142279,17.1877934 326.534629,17.3192488 C326.6131,17.3568075 326.632717,17.3943662 326.652335,17.4694836 C326.671952,17.8262911 326.711187,18.2018779 326.711187,18.5586854 C326.711187,18.9342723 327.044685,19.2535211 327.515506,19.1220657 C327.88824,19.0093897 328.260973,18.9342723 328.633706,18.8215962 C328.712176,18.8028169 328.751411,18.8215962 328.810264,18.8779343 C329.065292,19.1784038 329.300702,19.4600939 329.55573,19.7605634 C329.830376,20.0798122 330.222727,20.0798122 330.497372,19.7605634 C330.7524,19.4600939 330.987811,19.1784038 331.242839,18.8779343 C331.282074,18.8215962 331.340926,18.8028169 331.399779,18.8215962 C331.79213,18.915493 332.164863,19.028169 332.557214,19.1220657 C332.949564,19.2159624 333.283062,18.9906103 333.30268,18.5962441 C333.322298,18.2206573 333.341915,17.8262911 333.361533,17.4507042 C333.361533,17.3568075 333.400768,17.3380282 333.479238,17.3004695 C333.851971,17.1690141 334.205087,17.0375587 334.57782,16.8873239 C334.989788,16.7558685 335.107494,16.3802817 334.891701,16.0422535 L334.891701,16.0422535 Z" id="icon-moderador"></path>
            </g>
        </g>
    </g>
</svg>