<svg width="15" height="14" viewBox="0 0 15 14" xmlns="http://www.w3.org/2000/svg"><title>6B75BD1D-7BD1-4E8B-A163-309FC7B17634</title><path d="M14.884 1.635L12.908.085A.352.352 0 0 0 12.684 0a.346.346 0 0 0-.226.09L5.27 9.27s-2.826-2.7-2.905-2.78c-.08-.078-.184-.21-.342-.21-.158 0-.23.11-.313.193C1.649 6.537.64 7.589.144 8.112c-.029.032-.047.05-.072.075A.351.351 0 0 0 0 8.39c0 .078.029.143.072.204l.1.093s5.015 4.787 5.098 4.87c.082.082.183.186.33.186.145 0 .263-.154.332-.222l8.966-11.45a.353.353 0 0 0 .072-.208.367.367 0 0 0-.086-.229z" fill="#F2F5F7" fill-rule="evenodd"/></svg>