<svg version="1" xmlns="http://www.w3.org/2000/svg" viewBox="0 0 846 322"><path d="M137.914 28.163c5.662-1.785 12.132-3.266 19.426-4.471 7.294-1.175 13.917-1.785 19.869-1.785 6.852 0 13.46.671 19.869 2.014 6.394 1.343 12.132 3.571 17.198 6.699 5.051 3.128 9.065 7.371 12.056 12.727 2.96 5.356 4.456 12.056 4.456 20.083v118.794h39.738c1.785 3.266 3.571 7.584 5.356 12.941 1.801 5.356 2.686 11.018 2.686 16.969 0 11.308-2.533 19.35-7.584 24.111-5.066 4.761-11.476 7.142-19.213 7.142h-20.983v52.694c-3.281.595-8.18 1.404-14.726 2.457-6.562 1.038-12.803 1.557-18.755 1.557-6.562 0-12.361-.305-17.412-.885-5.066-.61-9.309-2.014-12.727-4.242-3.434-2.243-6.028-5.433-7.813-9.599-1.785-4.166-2.686-9.828-2.686-16.969v-25.012H44.597c-6.852-3.571-12.727-8.851-17.641-15.855-4.914-6.989-7.371-15.55-7.371-25.668 0-5.646.748-11.903 2.243-18.755 1.48-6.837 4.013-12.788 7.584-17.855L137.914 28.163zm22.768 70.106h-1.328l-59.393 83.955h60.721V98.269zm379.525 62.514c0 22.921-2.976 43.309-8.927 61.179-5.952 17.855-14.223 32.81-24.783 44.865-10.56 12.056-23.211 21.212-37.952 27.469-14.726 6.241-30.734 9.37-47.994 9.37-17.58 0-33.71-3.128-48.452-9.37-14.741-6.257-27.392-15.413-37.952-27.469-10.575-12.056-18.755-27.011-24.554-44.865-5.814-17.87-8.714-38.258-8.714-61.179s2.899-43.233 8.714-60.95c5.799-17.71 13.978-32.604 24.554-44.659 10.56-12.056 23.211-21.212 37.952-27.453 14.741-6.257 30.872-9.385 48.452-9.385 17.259 0 33.268 3.128 47.994 9.385 14.741 6.241 27.392 15.398 37.952 27.453s18.831 26.95 24.783 44.659c5.951 17.717 8.927 38.029 8.927 60.95zm-76.347 0c0-26.187-3.8-46.437-11.384-60.721-7.6-14.307-18.389-21.448-32.382-21.448-13.994 0-24.63 7.142-31.925 21.448-7.294 14.284-10.942 34.534-10.942 60.721 0 26.202 3.647 46.514 10.942 60.95s17.931 21.654 31.925 21.654 24.783-7.218 32.382-21.654c7.584-14.437 11.384-34.748 11.384-60.95zm221.9-132.62c5.662-1.785 12.132-3.266 19.426-4.471 7.294-1.175 13.917-1.785 19.869-1.785 6.852 0 13.46.671 19.869 2.014 6.394 1.343 12.132 3.571 17.198 6.699 5.051 3.128 9.065 7.371 12.056 12.727 2.96 5.356 4.456 12.056 4.456 20.083v118.794h39.738c1.785 3.266 3.571 7.584 5.356 12.941 1.801 5.356 2.686 11.018 2.686 16.969 0 11.308-2.533 19.35-7.584 24.111-5.066 4.761-11.476 7.142-19.213 7.142h-20.983v52.694c-3.281.595-8.18 1.404-14.726 2.457-6.562 1.038-12.803 1.557-18.755 1.557-6.562 0-12.361-.305-17.412-.885-5.066-.61-9.309-2.014-12.727-4.242-3.434-2.243-6.028-5.433-7.813-9.599s-2.686-9.828-2.686-16.969v-25.012H592.443c-6.852-3.571-12.727-8.851-17.641-15.855-4.914-6.989-7.371-15.55-7.371-25.668 0-5.646.748-11.903 2.243-18.755 1.48-6.837 4.013-12.788 7.584-17.855L685.76 28.163zm22.769 70.106h-1.328l-59.393 83.955h60.721V98.269z" fill="#6B7176"/></svg>