<svg version="1" xmlns="http://www.w3.org/2000/svg" viewBox="0 0 846 322"><path d="M151.13 300.094c-13.351 0-25.468-1.027-36.35-3.047-10.883-2.031-20.248-5.078-28.083-9.141s-13.929-9.07-18.281-15.022c-4.358-5.952-6.531-12.849-6.531-20.679 0-8.125 2.321-14.951 6.962-20.466 4.641-5.503 9.867-9.861 15.677-13.061 8.119 6.094 16.829 11.396 26.117 15.896s21.039 6.743 35.264 6.743c13.64 0 23.359-3.047 29.17-9.141 5.804-6.094 8.71-13.498 8.71-22.202 0-8.42-2.545-15.376-7.623-20.891-5.078-5.515-13.859-8.279-26.336-8.279-7.836 0-14.366.874-19.592 2.61-5.226 1.748-11.178 4.216-17.85 7.405-14.225-.579-25.468-4.417-33.74-11.538-8.273-7.109-12.406-18.069-12.406-32.866v-3.271c0-1.299.142-3.98.437-8.054l5.226-66.17c.868-12.471 4.789-22.344 11.751-29.607 6.968-7.251 16.687-10.877 29.17-10.877h125.383c1.742 3.189 3.478 7.393 5.22 12.625 1.742 5.22 2.616 10.735 2.616 16.545 0 11.03-2.468 18.86-7.405 23.501-4.936 4.653-11.172 6.968-18.718 6.968h-83.589l-3.047 40.92a329.474 329.474 0 0 1 16.764-3.921c5.657-1.146 12.843-1.736 21.547-1.736 15.087 0 28.148 2.256 39.184 6.743 11.024 4.511 20.094 10.676 27.209 18.506 7.109 7.842 12.329 16.982 15.671 27.434 3.33 10.44 5.007 21.623 5.007 33.516 0 11.904-2.037 23.371-6.094 34.39-4.068 11.042-10.452 20.679-19.155 28.957-8.71 8.267-19.811 14.88-33.309 19.805-13.494 4.937-29.821 7.405-48.976 7.405zM520.3 160.776c0 22.356-2.905 42.231-8.71 59.651-5.81 17.407-13.865 31.992-24.163 43.755-10.304 11.751-22.639 20.679-37.006 26.773s-29.967 9.141-46.796 9.141c-17.13 0-32.872-3.047-47.239-9.141-14.366-6.094-26.708-15.022-37.006-26.773-10.304-11.762-18.281-26.347-23.944-43.755-5.657-17.419-8.491-37.295-8.491-59.651 0-22.344 2.834-42.149 8.491-59.426 5.663-17.254 13.64-31.78 23.944-43.53 10.298-11.751 22.639-20.679 37.006-26.772 14.366-6.094 30.109-9.141 47.239-9.141 16.829 0 32.429 3.047 46.796 9.141s26.702 15.022 37.006 26.772c10.298 11.751 18.352 26.276 24.163 43.53 5.805 17.277 8.71 37.082 8.71 59.426zm-74.448 0c0-25.532-3.696-45.278-11.101-59.202-7.399-13.935-17.921-20.903-31.561-20.903-13.646 0-24.021 6.968-31.13 20.903-7.115 13.924-10.664 33.669-10.664 59.202 0 25.544 3.549 45.361 10.664 59.426 7.109 14.089 17.484 21.116 31.13 21.116 13.64 0 24.163-7.027 31.561-21.116 7.404-14.065 11.101-33.882 11.101-59.426zm338.264 0c0 22.356-2.905 42.231-8.71 59.651-5.81 17.407-13.865 31.992-24.163 43.755-10.304 11.751-22.639 20.679-37.006 26.773s-29.967 9.141-46.796 9.141c-17.13 0-32.872-3.047-47.239-9.141-14.366-6.094-26.708-15.022-37.006-26.773-10.304-11.762-18.281-26.347-23.944-43.755-5.657-17.419-8.491-37.295-8.491-59.651 0-22.344 2.834-42.149 8.491-59.426 5.663-17.254 13.64-31.78 23.944-43.53 10.298-11.751 22.639-20.679 37.006-26.772 14.366-6.094 30.109-9.141 47.239-9.141 16.829 0 32.429 3.047 46.796 9.141s26.702 15.022 37.006 26.772c10.298 11.751 18.352 26.276 24.163 43.53 5.805 17.277 8.71 37.082 8.71 59.426zm-74.448 0c0-25.532-3.696-45.278-11.101-59.202-7.399-13.935-17.921-20.903-31.561-20.903-13.646 0-24.021 6.968-31.13 20.903-7.115 13.924-10.664 33.669-10.664 59.202 0 25.544 3.549 45.361 10.664 59.426 7.109 14.089 17.484 21.116 31.13 21.116 13.64 0 24.163-7.027 31.561-21.116 7.404-14.065 11.101-33.882 11.101-59.426z" fill="#6B7176"/></svg>