<svg xmlns="http://www.w3.org/2000/svg" xmlns:xlink="http://www.w3.org/1999/xlink" width="72" height="72" viewBox="0 0 72 72"><defs><circle id="b" cx="32" cy="32" r="32"/><filter id="a" width="121.9%" height="121.9%" x="-10.9%" y="-7.8%" filterUnits="objectBoundingBox"><feOffset dy="2" in="SourceAlpha" result="shadowOffsetOuter1"/><feGaussianBlur in="shadowOffsetOuter1" result="shadowBlurOuter1" stdDeviation="2"/><feColorMatrix in="shadowBlurOuter1" values="0 0 0 0 0 0 0 0 0 0 0 0 0 0 0 0 0 0 0.0599524457 0"/></filter></defs><g fill="none" fill-rule="evenodd"><g transform="translate(4 2)"><use fill="#000" filter="url(#a)" xlink:href="#b"/><use fill="#FFF" xlink:href="#b"/></g><path fill="#1B73AE" d="M48.405 40.855a1.642 1.642 0 0 1-2.24.6 1.64 1.64 0 1 1 2.24-.6m-10.81 5.556a1.641 1.641 0 1 1-1.64-1.64c.904 0 1.64.736 1.64 1.64M26.5 40.471a1.628 1.628 0 0 1-.764.996 1.63 1.63 0 0 1-1.244.164 1.641 1.641 0 0 1-.395-3.004 1.641 1.641 0 0 1 2.403 1.844m-.17-12.345a1.642 1.642 0 0 1-2.24.6 1.64 1.64 0 1 1 1.64-2.84 1.642 1.642 0 0 1 .6 2.24m19.063-1.256c.113-.423.385-.776.764-.995a1.628 1.628 0 0 1 1.244-.164c.423.113.777.385.996.764.219.38.277.821.164 1.244a1.642 1.642 0 0 1-3.168-.849m3.544 9.782a3.913 3.913 0 0 0-4.492.415l-5.79-3.343c0-.035-.004-.069-.005-.104l5.799-3.348a3.928 3.928 0 0 0 2.535.929c.662 0 1.333-.169 1.946-.523a3.882 3.882 0 0 0 1.82-2.372 3.882 3.882 0 0 0-.39-2.965 3.882 3.882 0 0 0-2.372-1.82 3.882 3.882 0 0 0-2.964.39 3.882 3.882 0 0 0-1.82 2.373 3.886 3.886 0 0 0-.065 1.724l-5.954 3.387-.107-.002V24.61c1.57-.54 2.682-1.985 2.682-3.68 0-2.154-1.71-3.907-3.864-3.907s-3.972 1.753-3.972 3.907c0 1.698 1.143 3.145 2.538 3.683v6.79l-5.797-3.382c.286-1.578-.358-3.198-1.824-4.07h.011c-1.866-1.047-4.254-.45-5.331 1.416a3.904 3.904 0 0 0 1.433 5.33 3.924 3.924 0 0 0 4.494-.421l5.883 3.396-5.886 3.398a3.913 3.913 0 0 0-4.482-.406A3.911 3.911 0 0 0 21.534 42a3.882 3.882 0 0 0 2.372 1.82 3.884 3.884 0 0 0 2.964-.39 3.882 3.882 0 0 0 1.821-2.372c.153-.573.17-1.159.065-1.725l5.747-3.368c.016.01-.04.019-.04.028v6.74c-1.395.542-2.503 1.986-2.503 3.678 0 2.155 1.796 3.908 3.95 3.908 2.155 0 3.843-1.753 3.843-3.908 0-1.699-1.105-3.147-2.674-3.684v-6.66c.174-.02.163-.044.2-.067l5.82 3.335a3.928 3.928 0 0 0 3.868 4.606c1.351 0 2.673-.7 3.395-1.952a3.91 3.91 0 0 0-1.424-5.337"/></g></svg>