<svg xmlns="http://www.w3.org/2000/svg" xmlns:xlink="http://www.w3.org/1999/xlink" width="72" height="72" viewBox="0 0 72 72"><defs><circle id="b" cx="32" cy="32" r="32"/><filter id="a" width="121.9%" height="121.9%" x="-10.9%" y="-7.8%" filterUnits="objectBoundingBox"><feOffset dy="2" in="SourceAlpha" result="shadowOffsetOuter1"/><feGaussianBlur in="shadowOffsetOuter1" result="shadowBlurOuter1" stdDeviation="2"/><feColorMatrix in="shadowBlurOuter1" values="0 0 0 0 0 0 0 0 0 0 0 0 0 0 0 0 0 0 0.0599524457 0"/></filter></defs><g fill="none" fill-rule="evenodd"><g transform="translate(4 2)"><use fill="#000" filter="url(#a)" xlink:href="#b"/><use fill="#FFF" xlink:href="#b"/></g><path fill="#169EF8" d="M35.207 22.673H24.673v10.22a1.336 1.336 0 0 1-2.673 0V21.257c0-.39.246-.66.511-.904.244-.265.672-.354 1.061-.354h11.635a1.336 1.336 0 0 1 0 2.673zM48.093 33.2c.738 0 1.337.598 1.337 1.336v11.635c0 .389-.089.817-.354 1.06-.245.266-.515.512-.904.512H36.537a1.336 1.336 0 0 1 0-2.673h10.22V34.537c0-.738.598-1.336 1.336-1.336zm-13.636 6.174v-3.22l-2.794 1.659c-.185.107-.31.158-.51.158a1.18 1.18 0 0 1-.594-2.2l2.92-1.69-2.935-1.69c-.564-.325-.777-1.046-.451-1.61.325-.564 1.007-.758 1.571-.432l2.793 1.658v-3.324a1.18 1.18 0 0 1 2.358 0v3.387l3.059-1.72c.564-.326 1.363-.133 1.689.43a1.18 1.18 0 0 1-.433 1.612l-2.93 1.69 2.921 1.69c.564.325.748 1.046.422 1.61a1.21 1.21 0 0 1-1.042.59c-.2 0-.442-.051-.627-.158l-3.06-1.721v3.282a1.18 1.18 0 0 1-2.358 0z"/></g></svg>