<svg data-name="Layer 1" xmlns="http://www.w3.org/2000/svg" viewBox="0 0 29.937 29.937"><circle cx="14.969" cy="14.969" r="14.469" fill="#dbf8fd"/><path d="M14.969 29.938a14.969 14.969 0 1 1 14.969-14.969 14.986 14.986 0 0 1-14.969 14.969zm0-28.94A13.971 13.971 0 1 0 28.94 14.969 13.986 13.986 0 0 0 14.969.998z" fill="#84d9f8"/><g fill="#5bc3f6"><path d="M15.02 14.959a4.125 4.125 0 1 0-4.126-4.125 4.124 4.124 0 0 0 4.126 4.125zM13.482 17.274a.959.959 0 0 1-.012-.185 16.369 16.369 0 0 0-5.501 1.358 2.045 2.045 0 0 0-1.2 1.87v2.892h8.64a1.657 1.657 0 0 1 0-.477l.465-2.694-1.951-1.9a1.465 1.465 0 0 1-.441-.864z"/><path d="M25.222 16.89a.227.227 0 0 0-.131-.067l-3.366-.489-1.5-3.05a.238.238 0 0 0-.326-.085.247.247 0 0 0-.085.085l-1.5 3.049-3.367.49a.229.229 0 0 0-.194.26.226.226 0 0 0 .066.131l2.437 2.374-.587 3.353a.228.228 0 0 0 .187.264.221.221 0 0 0 .145-.023l3.011-1.582 3.011 1.582a.229.229 0 0 0 .309-.1.221.221 0 0 0 .023-.145l-.575-3.352 2.437-2.374a.229.229 0 0 0 .005-.321z"/></g></svg>