<svg width="24" height="24" viewBox="0 0 24 24" xmlns="http://www.w3.org/2000/svg"><title>370B15D3-F546-4B74-A2C1-0089D7E5F99A</title><g fill-rule="nonzero" fill="#FFF"><path d="M24 11c0-1.7-1.2-2.3-1.8-2.5-.5-.1-1.1.2-1.2.8-.1.5.2 1.1.8 1.2 0 0 .2.1.2.5 0 .6-.2.9-.7 1-1.1-2.3-3.5-4-6.3-4H9.6C8.6 6.1 6.9 5.9 6 5.9c-.7 0-1.3.1-1.3.2-.5.1-.8.7-.6 1.2l.7 2.1c-.9.7-1.6 1.6-2.1 2.6H1c-.6 0-1 .4-1 1v5c0 .6.4 1 1 1h2.3c.7 1 1.6 1.8 2.7 2.3V23c0 .6.4 1 1 1h3c.6 0 1-.4 1-1v-1h2v1c0 .6.4 1 1 1h3c.6 0 1-.4 1-1v-1.7c2.4-1.1 4-3.6 4-6.3 0-.4 0-.8-.1-1.1 1.3-.4 2.1-1.4 2.1-2.9zm-9 2h-4c-.6 0-1-.4-1-1s.4-1 1-1h4c.6 0 1 .4 1 1s-.4 1-1 1z"/><circle cx="13" cy="3" r="3"/></g></svg>