<svg
	xmlns="http://www.w3.org/2000/svg"
	xmlns:xlink="http://www.w3.org/1999/xlink" width="0" height="0" version="1.1">
	<defs>

		<symbol id="icon-footer-googlePlay" viewBox="0 0 40 40">
			<defs>
				<path id="a" d="M0 20v20h40V0H0v20z"/>
			</defs>
			<g fill="none" fill-rule="evenodd">
				<path fill="#8696A0" d="M14.062 10.537a.418.418 0 0 0-.101.272v18.384c0 .1.037.196.101.27l6.793-9.462-6.793-9.464zM22.567 17.617l1.326-1.847-4.498-2.572zM19.394 26.802l4.499-2.572-1.327-1.846zM30.663 19.64l-4.344-2.483L24.276 20l2.043 2.842 4.344-2.482a.417.417 0 0 0 0-.722"/>
				<g>
					<mask id="b" fill="#fff">
						<use xlink:href="#a"/>
					</mask>
					<path fill="#8696A0" d="M32.043 22.774L15.96 31.966a3.19 3.19 0 0 1-3.188-.011 3.205 3.205 0 0 1-1.592-2.763V10.808c0-1.136.611-2.194 1.592-2.764a3.19 3.19 0 0 1 3.188-.01l16.082 9.192A3.202 3.202 0 0 1 33.652 20a3.204 3.204 0 0 1-1.61 2.774M20 0C8.955 0 0 8.955 0 20c0 11.046 8.955 20 20 20s20-8.954 20-20C40 8.955 31.045 0 20 0" mask="url(#b)"/>
				</g>
			</g>
		</symbol>

		<symbol id="icon-footer-appStore" viewBox="0 0 40 40">
			<defs>
				<path id="a" d="M40 40H0V0h40v40V0H0v40h40z"/>
			</defs>
			<g fill="none" fill-rule="evenodd">
				<path fill="#8696A0" d="M30.458 24.279c-.179.573-.71 2.072-1.765 3.614-1.012 1.48-2.16 3.156-4.028 3.191-.874.016-1.466-.241-2.04-.49-.582-.251-1.184-.511-2.128-.511-.99 0-1.624.27-2.235.53-.545.231-1.11.471-1.888.502l-.095.002c-1.658 0-2.87-1.553-4.066-3.284-2.398-3.46-3.775-9.168-1.608-12.93 1.14-1.983 3.208-3.234 5.396-3.266h.066c.942 0 1.83.352 2.614.663.586.232 1.093.433 1.484.433.348 0 .85-.198 1.433-.428.845-.333 1.896-.748 2.995-.748.14 0 .28.007.416.022.933.04 3.254.373 4.77 2.59a.213.213 0 0 1-.06.295l-.02.012c-.44.272-2.636 1.775-2.608 4.61.031 3.491 2.918 4.771 3.247 4.906l.015.007a.208.208 0 0 1 .112.257l-.007.023zM21.146 7.46c.95-1.113 2.539-1.929 3.864-1.982a.211.211 0 0 1 .217.188c.154 1.4-.353 2.964-1.358 4.182-.955 1.154-2.352 1.871-3.648 1.871-.09 0-.182-.003-.272-.01a.21.21 0 0 1-.192-.182c-.208-1.572.581-3.132 1.39-4.067zM20 .001C8.954 0 0 8.954 0 20c0 11.044 8.955 20 20 20 11.047 0 20-8.956 20-20C40 8.954 31.046 0 20 0z"/>
			</g>
		</symbol>

	</defs>
</svg>
