<?xml version="1.0" encoding="UTF-8" standalone="no"?>
<svg width="14px" height="13px" viewBox="0 0 14 13" version="1.1" xmlns="http://www.w3.org/2000/svg" xmlns:xlink="http://www.w3.org/1999/xlink">
    <!-- Generator: sketchtool 3.7.2 (28276) - http://www.bohemiancoding.com/sketch -->
    <title>7BDCD972-8434-4885-87A2-3C28D9A8CD10</title>
    <desc>Created with sketchtool.</desc>
    <defs></defs>
    <g id="Page-1" stroke="none" stroke-width="1" fill="none" fill-rule="evenodd">
        <g id="alura-interna-forum" transform="translate(-866.000000, -2297.000000)" fill="#747C81">
            <g id="Group-4" transform="translate(761.000000, 2288.000000)">
                <path d="M117.042686,9.11079137 C116.985612,9.06378897 116.915108,9.03021583 116.834532,9.03021583 C116.753957,9.03021583 116.680096,9.06378897 116.623022,9.11414868 L109.918465,17.7290168 C109.918465,17.7290168 107.282974,15.1942446 107.209113,15.1203837 C107.135252,15.0465228 107.03789,14.9223022 106.890168,14.9223022 C106.742446,14.9223022 106.6753,15.0263789 106.598082,15.1035971 C106.541007,15.1640288 105.600959,16.1510791 105.13765,16.641247 C105.110791,16.6714628 105.094005,16.6882494 105.070504,16.7117506 C105.030216,16.7688249 105.003357,16.8326139 105.003357,16.9031175 C105.003357,16.9769784 105.030216,17.0374101 105.070504,17.0944844 L105.164508,17.1817746 C105.164508,17.1817746 109.841247,21.6738609 109.918465,21.7510791 C109.995683,21.8282974 110.089688,21.9256595 110.227338,21.9256595 C110.361631,21.9256595 110.472422,21.781295 110.536211,21.717506 L118.899281,10.9741007 C118.939568,10.9170264 118.966427,10.8532374 118.966427,10.7793765 C118.966427,10.6954436 118.932854,10.62494 118.885851,10.5645084 L117.042686,9.11079137 Z" id="icon-check"></path>
            </g>
        </g>
    </g>
</svg>