<svg id="Layer_1" xmlns="http://www.w3.org/2000/svg" viewBox="0 0 632 628.7"><style>.st0{fill:#f4e4f0}.st1{fill:#FFF}.st2{fill:#ffc5e3}.st3{fill:#d1d1d1}.st4{fill:#bfbfbf}.st5{fill:#eaeaea}.st6{fill:#ffcfe9}.st7{fill:#f9e7ca}.st8{fill:#bcc0c4}.st9{fill:#e5cfb5}.st10{fill:#6b7176}.st11{fill:#c6cace}</style><path class="st0" d="M106.1 566l35-35c11.6-11.6 11.1-30.2-.7-41.7l-.3-.3c-12.6-12.6-12.6-32.9 0-45.5l7.7-7.7c11.6-11.6 11.1-30.2-.7-41.7l-.3-.3-.3-.3c-11.4-11.7-30.1-12.3-41.7-.7l-40.5 40.5c-12.6 12.6-32.9 12.6-45.5 0-12.6-12.6-12.6-32.9 0-45.5l15.5-15.5c11.6-11.6 11.1-30.2-.7-41.7l-.3-.3c-12.6-12.6-12.6-32.9 0-45.5L286.5 31.7c12.6-12.6 32.9-12.6 45.5 0l.3.3c11.4 11.7 30.1 12.3 41.7.7l15.5-15.5c12.6-12.6 32.9-12.6 45.5 0 12.6 12.6 12.6 32.9 0 45.5l-40.5 40.5c-11.6 11.6-11.1 30.2.7 41.7l.3.3.3.3c11.4 11.7 30.1 12.3 41.7.7l7.7-7.7c12.6-12.6 32.9-12.6 45.5 0l.3.3c11.4 11.7 30.1 12.3 41.7.7l35-35c12.6-12.6 32.9-12.6 45.5 0 12.6 12.6 12.6 32.9 0 45.5l-2.3 2.3c-11.6 11.6-11.1 30.2.7 41.7l.3.3c12.6 12.6 12.6 32.9 0 45.5l-15.4 15.4c-11.6 11.6-11.1 30.2.7 41.7l.3.3c12.6 12.6 12.6 32.9 0 45.5l-253.3 253c-12.6 12.6-32.9 12.6-45.5 0l-.3-.3c-11.4-11.7-30.1-12.3-41.7-.7l-15.4 15.4c-12.6 12.6-32.9 12.6-45.5 0l-.3-.3c-11.4-11.7-30.1-12.3-41.7-.7l-2.3 2.3c-12.6 12.6-32.9 12.6-45.5 0-12.5-12.5-12.5-32.9.1-45.4z"/><path class="st1" d="M469.2 276.9v-.2c-4.8-16.2-14.6-38.7-33.1-58.6-.7-.7-1.4-1.5-2.1-2.2l-1.7-1.7c-1.1-1.1-2.3-2.2-3.5-3.3-.6-.5-1.2-1.1-1.8-1.6-8.6-7.6-18.8-14.5-30.7-20.1-7.5-3.5-15.7-6.6-24.6-9-3-.8-6-1.5-9.1-2.1-3.6-.7-7.3-1.2-11-1.6-.6-.1-1.2-.1-1.8-.2-1.2-.1-2.4-.2-3.7-.3-1.2-.1-2.4-.1-3.7-.2-1.8-.1-3.7-.1-5.5-.1-1.7 0-3.5.1-5.2.1-1.3 0-2.6.1-3.8.2-1.1.1-2.3.1-3.4.3-6 .5-12 1.3-17.8 2.4-.3.1-.7.1-1 .2-2 .4-4.1.8-6.1 1.3-1.9.4-3.7.9-5.6 1.3-.5.1-1 .3-1.5.4-.4.1-.7.2-1.1.3-.6.2-1.1.3-1.7.5l-2.1.6-2.1.6-2.1.6-3.6 1.2c-1 .3-2 .7-2.9 1-1 .4-2 .7-3 1.1-.2.1-.5.2-.7.2-1 .3-1.9.7-2.8 1.1h-.1c-1 .4-2.1.8-3.1 1.2-29.6 0-50.6 1.6-53.9 5-3.4 3.4 4.5 13.9 8 19.8l2.4-1.3c-1.5 1.1-2.9 2.2-4.2 3.2-.4.3-.8.7-1.2 1-4.1 3.5-6.7 6.5-7.3 8.5 0 .1 0 .1-.1.2-.1.2-.1.4-.1.6 0 .2 0 .4.1.5.4 1.5 1.3 3.6 2.5 5.9 3 6 7.9 13.8 10.7 18.2 1.3 2.1 2.2 3.4 2.2 3.4l-4.3 11.9v.2c-22.4 0-61.2 2.1-62.6 7.8-1.5 5.9 33.4 26.6 53.1 36.9-1.6 7.9-3 15-4.6 19.5-5.3 15-23.5 28.1-23.5 60.4 0 16.4 21.9 40.2 44.6 40.2 3.3 0 6.4-.2 9.3-.6 6.1 5.4 20.3 12.3 34.5 8.2 16.7-4.8 27-24.1 27-24.1l.1-1.2c19.6 9.9 66 14.2 105.9-20.1 15.2-13.1 23.1-28.9 26.9-44.7.3-.6.7-1.3 1.1-2 1.2-2 2.5-4.1 4-6.3 11.1-16.3 29.3-35.9 34.6-41.5.7-.8 1.1-1.8 1.1-2.9-.4-2.8-1.4-10.3-4.3-20.1z"/><path class="st2" d="M289.5 286.3c-2 7.1-7.1 11.8-11.9 15.4-3.9 3-7.6 5.3-9.1 7.9-2 3.4-.1 10.8 0 17.1 0 4.1-.7 7.8-4 9.4-8.3 4-17-4.9-23.3-4.5s-17.2 19.7-22.4 14.8c-5.2-4.9 2-17.2 3.6-21.9.9-2.8 0-5.5-2.5-8.2.3.1.6.3.8.4.5.3 1 .5 1.5.7l.6.3c.1 0 .2.1.3.1s.2.1.3.1c.1 0 .2.1.3.1.4.2.7.3 1 .3.8.2 1.5.3 2.3.2h.3c.2 0 .3 0 .5-.1h.1c.3 0 .5-.1.8-.2.1 0 .3-.1.4-.1.1 0 .2-.1.2-.1.2-.1.4-.1.6-.2.2-.1.5-.2.7-.3l.6-.3c.8-.4 1.6-1 2.4-1.6.2-.2.4-.3.6-.5.2-.2.5-.4.7-.6l.3-.3c.7-.7 1.4-1.4 2-2.2.2-.2.4-.5.6-.7.2-.3.4-.5.6-.8.1-.1.1-.2.2-.3.1-.2.3-.4.4-.5l.6-.9.6-.9c.2-.3.4-.6.6-1 .4-.7.7-1.3 1.1-2 .1-.3.3-.5.4-.8.3-.7.6-1.3.9-2 .2-.6.5-1.2.7-1.8.2-.5.3-1 .5-1.5.2-.6.4-1.2.5-1.9l.3-1.2c.1-.4.2-.8.2-1.2.2-.8.3-1.6.4-2.4.1-.8.2-1.6.2-2.4.1-1.1.1-2.3.1-3.4v-.6c0-1.2-.2-2.4-.3-3.6-.1-.4-.1-.9-.2-1.3-.1-.3-.1-.6-.2-.9-.1-.3-.1-.6-.2-.9-.1-.4-.2-.7-.3-1.1l-.3-.9-.3-.9c-.1-.3-.2-.6-.3-.8-.4-.8-.7-1.6-1.2-2.2-.1-.2-.3-.5-.5-.7-.2-.2-.3-.4-.5-.7-.3-.3-.5-.6-.8-.9l-.4-.4c-.2-.1-.3-.3-.5-.4-.2-.2-.4-.3-.6-.4-.3-.2-.5-.3-.8-.4-.3-.1-.6-.3-.9-.4-.1 0-.2-.1-.2-.1-.1 0-.3-.1-.4-.1-.2 0-.3-.1-.5-.1h-.3-.1c-.2 0-.4 0-.6-.1-.2 0-.4 0-.6-.1H233.4c-1-.1-2-.1-3.2-.1H228c1.3-4 8.5-5.3 11.9-6.9s5.6-6.5 5.6-6.5c1.1-.4 2.2-.9 3.4-1.5.5-.3.9-.5 1.4-.8 5.7-3.1 12.6-6.5 20.9-9.9l.3-.1s10.4-2 11.1 2.5-6 11.2-3.8 17c1.5 5.3 14.3 11.3 10.7 24.3z"/><path class="st2" d="M248.5 355.4v-.1c.4-.3.7-.7.6-1-.6-1.5-1.3-2.9-1.9-4.4-.1-.8-.2-1.6-.3-2.3.2-.1.5-.4.5-.6-.4-1.2-.9-2.3-1.6-3.3-.3-.6-.6-1.3-.9-1.9-.1-.1-.4 0-.5.2 0-.1-.1-.2-.1-.4 0-.9-.1-1.8-.3-2.6-.3-1.4-2.6.9-2.8 1.5-.5 1.7-.6 4.1-.5 6.4-.1.2-.3.5-.4.7v.1c-.3.2-.5.5-.4.7 0 0 0 .1.1.1-.1.4-.3.8-.3 1.3 0 .2.1.2.3.1-.2.6-.3 1.3-.3 1.9-.1.2-.2.3-.1.5.1.1.1.3.2.4-.3.1-.7.5-.7.7l.6 1.5c-.2.1-.3.3-.3.4.2 1.6 1.3 2.8 2.7 3.7.1.1.1.2.2.3 0 .1.1.1.2.1.1.2.2.4.3.5.1.1.2.3.2.4h.1c.1.1.1.2.2.3.1.1.3.1.6-.1l.6.3c.2.1.5-.1.7-.3 0 0 .1.1.2.1h.2l.1.1.1.1c.2.1.7-.2.9-.5.3-.2.6-.4.9-.7 1.9-.7 1.7-2.4 1.4-4.2-.1-.1-.3-.1-.5 0zM263.1 342.1c-.3-.7-1.5.3-1.7.8-.6-1.1-1.4-2.1-2.4-2.9-.5-.5-2.1.7-1.8 1.3.1.1.1.2.2.4-.1 0-.2-.1-.3-.1-.3-.1-.9.4-.8.7.2 1.2 1 2.3 1.8 3.4v.2c0 .4.2.8.3 1.2 0 .1-.1.1-.1.1-.4.2-.7.6-.7.9-.3 1.3.8 2.5 1.5 3.5s1.7 2.4 2.9 2.7c.4.1 1.1-.3 1.4-.7v.4c-.1.5.7 0 .8-.2 2.4-4.1.7-7.8-1.1-11.7zM303.9 281.7c-2.7-1.8-5.5-2.2-8.5-.8-.1 0-.2-.1-.3-.1-1.3-.3-2.7.7-3.6 1.6-.4.5-1.7 2.5-.4 2.8.5.1.9.2 1.4.4-.1.2-.1.3 0 .4.7.5 1.5.7 2.4 1 1.2.5 2.2 1.2 3.3 1.9 2 1.3 3.8 2.4 6.2 2.7.3 0 .6-.1 1-.4 0 .1 0 .2.1.3.2 2 4.8-1 4.7-2.9-.4-2.7-4.2-5.5-6.3-6.9zM213 344.5c-.8-.4-2 .6-2.4 1.1-2 2-3 5-3.2 7.8-.1 1.9 2.8-.4 3.1-1.1.5-1.1.8-2.2 1.1-3.3.3-.8.5-1.9 1-2.5.5-.5 1.2-1.6.4-2zM261.3 361.4c-1-.7-2-1.5-3.1-1.9-.6-.2-2.2 1-1.6 1.5.2.2.4.4.6.5v.2c.2.6.6 1 1 1.5.3.5.6 1 1.2 1 .1 0 .3-.1.3-.2v-.2c.1.1.3.2.4.3 0 0 .1 0 .1-.1v-.1h.4c0 .9 1.6-.4 1.7-.6.7-1-.2-1.4-1-1.9zM314.5 270.8c-.3 0-.6-.1-.8-.2.1-.7-.5-.8-1.2-.6-.9-.6-1.7-1.4-2.9-1.7-2-.4-4.4 0-6.3.5-3 .8-7.7 2.4-8.9 5.6-.1.3-.2.7.2.9.8.3 1.8.1 2.8-.3 1 .3 2.1.2 3.2.2 2.1.1 4.3.3 6.5.2.9 0 1.9-.2 2.8-.6.2.1.4.2.6.4 2.5 2.3 6.8-4.2 4-4.4zM298.5 248.8c-.5-1.6-2.4-1.9-3.9-1.6-1.8.4-3.4 1.5-4.6 2.8-.4.4-.7 1-1 1.6-.9.4-1.8.9-2.6 1.7-.6.6-1.4 1.9-.4 2.5.1 0 .1.1.2.1 0 .1.1.2.1.3.6.7 1.9-.2 2.4-.6.4-.3.7-.5.9-.8.1-.1.3-.1.4-.2.5-.1 1.1-.3 1.6-.4.7-.2 1.3-.4 2-.6 0 .1.1.3.2.4.7.6 2.1-.3 2.5-.7 1.5-1.3 2.8-2.8 2.2-4.5z"/><path class="st3" d="M469.2 276.9c-.1 0-.1.1-.2.1.1-.1.1-.2.2-.3-4.8-16.2-14.6-38.7-33.1-58.6-.1.1-.2.1-.3.2l-1.8-2.4c-2-2.4-4.4-4.6-7-6.6-8.8-6.8-20-11.6-28-17.9-.9-.7-1.8-1.5-2.7-2.2-7.5-3.5-15.7-6.6-24.6-9-3-.8-6-1.5-9.1-2.1-3.6-.7-7.3-1.2-11-1.6-.6-.1-1.2-.1-1.8-.2-1.2-.1-2.4-.2-3.7-.3-1.2-.1-2.4-.1-3.7-.2-1.3.5-2.6 1.1-3.8 1.8-.6-.7-1.1-1.3-1.7-1.9-.2-.3-.5-.5-.7-.8-1-1.1-2.9-.4-4.5.9-.6.5-1.2 1.2-1.6 1.8-.7-.5-1.5-1.1-2.2-1.6l-.1-.1c-.8-.6-2.1-.4-3.4.3-1.5.8-2.9 2.1-3.1 3.4-.4-.5-.9-1-1.3-1.3-1.3-1-2.4-1.2-3.9-.9-.4.1-.7.2-1.1.3-1.1-.6-3 .4-4.2 1.8-.3-.1-.7 0-1.1.1h-.6c-.3-.4-.8-.5-1.4-.4l-.1-.1c-.2-.3-.5-.4-.9-.4-.3 0-.6.1-1 .2-1.5.6-3.3 2.4-3.3 3.6-.1 0-.2.1-.2.1-.3-.3-.6-.5-.8-.8-.1-.1-.1-.1-.2-.1l-1.5-1.5c-1.9.4-3.7.9-5.6 1.3-.1.2-.2.4-.2.6-.1.1-.3.2-.4.4-.6-.1-1.5.1-2.7.8-1.3.7-2.7 1.5-4 2.2-.3-.3-.9-.4-1.8-.1-1 .2-4.5 1.4-8.7 3.1l-8.1 2.9c-.5.2-1.3.9-2.1 1.8-.7-.2-1.6 0-2.5.5-.2-.2-.4-.3-.6-.5-.4-.3-.9-.4-1.5-.4-1 0-2.3.6-3.3 1.4-.3.3-.6.5-.9.8-.3-.1-.5-.1-.8 0-.9.1-2 .6-2.9 1.3-.6.5-1.1 1-1.6 1.6-1.9 0-4.6 2.3-5.1 4.3-.5.2-.9.5-1.4.9-.4.1-.8.3-1.2.5-1.4-1.8-5.4 1.3-5.9 3.7-.6.1-1.4.4-2 .9-1-.5-2.7.3-3.9 1.4-2.2.7-4.8 3.5-3.7 5.1.1.1.2.3.2.4-.7 0-1.5.3-2.2.8-1.7-.5-4.9 1.9-5.4 3.9-.5.3-.9.7-1.3 1.1-1.7-.5-4.6 1.7-5.3 3.5-.5.4-.9.9-1.1 1.4-.3.7-.3 1.3.2 1.8 1.5 1.7 3.1 3.3 4.7 4.9.7.7 1.7.6 2.7.1.3-.1.5-.3.7-.5 1.1 1.2 2.2 2.4 3.4 3.6.4.5.9.9 1.3 1.4.7.9 1.4 1.9 2.1 2.8 3.1 4.1 6.2 8.2 9.6 12.1.4.4.9.5 1.5.4.6-.1 1.2-.4 1.7-.9.9 1.1 1.8 2.1 2.7 3.2 1.4-.5 2.8-1.1 4.2-1.8.5-.3 1-.6 1.6-.8 0-.2 0-.4-.1-.6.7.1 1.6-.3 2.5-1 .1.1.3.1.4.1.9-.5 1.9-1 2.8-1.4l3-1.5c1-.7 2-1.4 3-2 .3 0 .6 0 1-.2.7-.2 1.5-.4 2.2-.7h.1c3.1-1 6.1-2.3 9-3.7h.1c1-.5 1.9-1 2.8-1.5 1.9-.6 3.9-1.2 5.9-1.6 3.7-1.2 7.6-2.4 11.8-3.5 1.4-.4 2.8-.7 4.3-1.1 1.9-.5 3.9-.9 6-1.3.5-.2 1-.3 1.5-.4l.1.1 4.8-.9c1.6-.3 3.3-.6 5-.8-.1-.2-.2-.3-.3-.5 1.6-.3 3.3-.5 5-.7.4-.1.7-.1 1.1-.3 0 .2.1.3.1.5v.1c.6 2.7 6-1.7 6.2-3.4v-.6c0-.4 0-.7-.1-1.1 0-1.1.1-2.1-.2-3.2v-.1c.5-.7.8-1.4.9-1.9l.9-.3c1.7-.7 2.8-1.6 3.5-2.7.4-.1.8-.3 1.2-.6 2.3 1.3 7.5-3 6.7-5.5-.7-2.3-1.5-4.5-2.4-6.7l.6-.3c.6.9 1.2 1.8 1.9 2.8 1.7 2.5 8.2-2.9 7.4-5.4-.3-.8-.5-1.5-.8-2.3.4-.3.8-.7 1.2-1 1.6 1.6 5.1-.9 6.5-3.3 1.4.4 2.8.8 4.3 1.2 2.1.6 4.4 1.1 6.7 1.7 1.5 2.4 3.7 4.5 5.6 6.5 3.5 3.8 7.1 7.6 10.2 11.8 1.7 2.2 3.1 4.6 4.3 7.1 3.9 10 8.1 19.9 10.8 30.3.5 2.1 2.9 1 4.8-.5-.6.7-.8.9.3-.1.5-.5 1-1 1.4-1.6 0 4.4.3 9.6 3.1 12.5 1.2 1.2 3 1.1 4.8.4.8 1.7 1.7 3.4 2.8 5.1 3.1 4.6 7 8.3 9.4 13.4 5.1 10.9 6.8 23.7 9.4 35.3.4 1.7 1.6 2.4 3.2 2.4.1 1.3.2 2.8.4 4.2-.7 5.3-1.6 10.7-3 15.9-.7 2.7 1.7 3.2 3.8 2.9 11.1-16.3 29.3-35.9 34.6-41.5.7-.8 1.1-1.8 1.1-2.9-.6-3.5-1.6-11-4.5-20.8zm-176.6-90c.5-.5.9-1.1 1.1-1.6l.3.6c0 .2.1.3.1.4-.4.2-1 .4-1.5.6z"/><path class="st4" d="M240.4 254.7c0 .3-.2.6-.4.9-5.7 1.1-10.7.4-14-.2 0 0-.9-1.3-2.2-3.4.1-.1.2-.1.3-.2-1-1.8-1.9-3.6-2.7-5.4-2-2.8-3.6-5.7-4.9-8.9-1.1-1.3-2.2-2.5-3.4-3.7-1.2-2.3-2.1-4.4-2.5-5.9 0-.2-.1-.4-.1-.5.8-.8 1.9-1.5 2.8-1.7.6-.2 1.2-.1 1.6.2 1.5 1.3 3 2.6 4.3 4 .1.1.2.1.2.2.9-.3 1.6-.3 2.1.3 1.2 1.7 2.4 3.4 3.4 5.2.1.2.3.4.4.7 1 1.2 2 2.3 3 3.5.4.5.9 1.1 1.3 1.6.8-.3 1.6-.3 2 .2.8.9 1.3 1.8 1.6 2.8.8 1.3 1.7 2.6 2.7 3.9 1.5.3 2.4 1.6 3.1 3.1 0 .1.1.1.1.2.1.3.3.6.4.8.3.6.5 1.1.7 1.6.2.2.2.4.2.7z"/><path class="st5" d="M365.5 267.4c1.1.6 2.5-.2 2.6-1.5.2-13.7.4-70.5-11.8-70.5-12.2 0-39.4 45.2-45.7 56-.6.9.2 2.3 1.3 2.1 13.4-3.1 35.4 3.6 53.6 13.9zM232 207.9l1.2-1.8c-3.2-2.7-11.8-7-20.3-10.8-3.4 3.4 4.5 13.9 8 19.8l.3.3 10.8-7.5z"/><path class="st6" d="M277.6 301.7c-3.9 3-7.6 5.3-9.1 7.9-2 3.4-.1 10.8 0 17.1-7.8-13.7-16-9.7-25.7-13.5-1.5-.6-2.9-1.7-4.1-3.2-6.4-7.7-10.1-26-11.9-42.3h1.4-.7c1.3-4 8.5-5.3 11.9-6.9s5.6-6.5 5.6-6.5c1.1-.4 2.2-.9 3.4-1.5.5-.3.9-.5 1.4-.8 2.1 16.2 6.6 36.8 16.4 40.4 3.5 1.3 7.4 4.7 11.4 9.3z"/><path class="st7" d="M245.8 289.3c-.1.8-.1 1.6-.2 2.4-.1.8-.2 1.6-.4 2.4-.1.4-.2.8-.2 1.2l-.3 1.2c-.2.6-.3 1.2-.5 1.9-.2.5-.3 1-.5 1.5-.2.6-.4 1.2-.7 1.8-.3.7-.6 1.4-.9 2-.1.3-.3.5-.4.8-.3.7-.7 1.4-1.1 2-.2.3-.4.6-.6 1l-.6.9-.6.9c-.1.2-.3.4-.4.5-.1.1-.1.2-.2.3-.2.3-.4.6-.6.8-.2.2-.4.5-.6.7-.7.8-1.3 1.5-2 2.2l-.3.3c-.2.2-.5.4-.7.6-.2.2-.4.3-.6.5-.8.6-1.6 1.2-2.4 1.6l-.6.3c-.2.1-.5.2-.7.3-.2.1-.4.2-.6.2-.1 0-.2 0-.2.1-.1 0-.3.1-.4.1-.3.1-.5.1-.8.2h-.1c-.2 0-.3 0-.5.1h-.3c-.8 0-1.6 0-2.3-.2-.2-.1-.6-.2-1-.3-.1 0-.2-.1-.3-.1-.1 0-.2-.1-.3-.1-.1 0-.2-.1-.3-.1l-.6-.3c-.4-.2-.9-.4-1.5-.7-.3-.1-.5-.3-.8-.4-15.9-7.5-62.4-34-60.7-40.8 1.5-6.1 45.3-8 66.7-7.8h3.8c1.2 0 2.3.1 3.2.1h1.7c.2 0 .4 0 .6.1.2 0 .4 0 .6.1h.4c.2 0 .4.1.5.1.1 0 .3.1.4.1.1 0 .2.1.2.1.3.1.6.2.9.4.3.1.5.3.8.4.2.1.4.3.6.4.2.1.3.2.5.4.2.1.3.3.4.4.3.3.5.6.8.9.2.2.3.4.5.7.2.2.3.5.5.7.4.7.8 1.4 1.2 2.2.1.3.2.5.3.8l.3.9.3.9c.1.4.2.7.3 1.1.1.3.1.6.2.9.1.3.1.6.2.9.1.4.2.9.2 1.3.2 1.1.3 2.3.3 3.6v.6c.4 1.6.4 2.8.4 3.9z"/><path class="st8" d="M273.8 239.6l-.2-.2c-.1-.1-.3-.3-.4-.5-.3-.5-.8-1.2-1.3-2.1-.5-.9-.9-2-1.4-3.1-.2-.6-.5-1.2-.8-1.7-.3-.6-.6-1.2-.9-1.7-1.3-2.3-2.8-4.4-4-6.1-.6-.8-1.1-1.5-1.4-2-.3-.5-.5-.8-.5-.8s1 .9 2.3 2.4c1.3 1.5 3 3.6 4.4 6l.9 1.8c.3.6.5 1.2.7 1.8.4 1.2.8 2.3 1.2 3.2.4.9.7 1.7 1 2.2.2.5.4.8.4.8zM260 219.8s-.5-.3-1.2-.9c-.7-.6-1.6-1.4-2.3-2.3-.8-.9-1.4-1.9-1.8-2.7-.4-.8-.6-1.4-.6-1.4s.4.4 1 1.1c.6.7 1.3 1.5 2.1 2.4.7.9 1.5 1.8 2 2.5.5.8.8 1.3.8 1.3zM267 221.9s-.2-.3-.6-.8c-.4-.5-1-1.1-1.7-1.9-.7-.8-1.6-1.6-2.6-2.5-1-.9-2.1-1.8-3.1-2.7l-1.5-1.5c-.5-.5-.9-1.1-1.3-1.6-.8-1.1-1.3-2.3-1.7-3.2-.4-1-.8-1.7-1.2-2.2-.4-.5-.7-.7-.7-.7s.1 0 .2.1.3.2.6.4c.5.4 1 1.2 1.5 2.1.3.5.5 1 .8 1.5.3.5.7 1 1.1 1.5.8 1 1.8 2 2.8 2.9 1 .9 2.1 1.9 3.1 2.8 1 .9 1.8 1.9 2.4 2.7.7.8 1.1 1.6 1.4 2.1.3.7.5 1 .5 1zM281.3 231.8s.1 0 .2-.2c0-.2-.1-.4-.3-.7-.3-.6-.9-1.3-1.5-2.3-1.2-1.9-2.8-4.4-4.4-7-.8-1.3-1.6-2.5-2.3-3.7-.7-1.2-1.4-2.3-2-3.3-.6-1-1-1.8-1.4-2.4-.3-.6-.5-.9-.5-.9s.2.3.6.8c.4.5 1 1.3 1.6 2.2.6.9 1.4 2 2.2 3.1.8 1.2 1.6 2.4 2.4 3.7.8 1.3 1.6 2.6 2.3 3.8.7 1.2 1.3 2.4 1.8 3.4s.9 1.9 1.2 2.5c.2.3.2.6.1.8.1.3 0 .2 0 .2zM293.6 233.4s-.3-.5-.8-1.5-1.3-2.3-2.2-3.9c-1-1.6-2.2-3.4-3.5-5.2-1.4-1.8-3-3.7-4.6-5.6-.8-.9-1.6-1.9-2.3-2.9-.7-1-1.4-2-1.9-3-1.1-2-2.1-4-3.1-5.5-1-1.6-1.9-2.8-2.7-3.5-.4-.4-.7-.7-.9-.8l-.3-.3s.1.1.4.2c.2.2.6.4 1 .8.8.7 1.9 1.8 3 3.4 1.1 1.5 2.1 3.4 3.3 5.4.6 1 1.2 2 2 2.9.7 1 1.5 1.9 2.3 2.8.8.9 1.6 1.9 2.4 2.8.8.9 1.5 1.9 2.2 2.9 1.4 1.9 2.5 3.8 3.3 5.4.9 1.6 1.5 3.1 1.9 4 .3 1 .5 1.6.5 1.6zM282 185.2s.3.2.7.6l1.7 1.7c.7.7 1.5 1.6 2.3 2.6.8 1 1.7 2 2.5 3.1s1.6 2.2 2.3 3.3c.7 1.1 1.3 2.1 1.8 3 .5.9.9 1.7 1.1 2.2.3.5.4.8.4.8s-.2-.3-.5-.8-.8-1.2-1.4-2c-1.2-1.7-2.7-3.8-4.3-6-1.6-2.2-3.2-4.3-4.5-5.9-.6-.8-1.1-1.5-1.5-1.9-.4-.4-.6-.7-.6-.7zM297.2 206.5s.4.5.9 1.3 1.1 1.9 1.6 3.1c.5 1.1.9 2.3 1.2 3.2.3.9.4 1.5.4 1.5s-.4-.5-.9-1.3-1.1-1.9-1.6-3.1c-.5-1.1-.9-2.3-1.2-3.2-.3-.8-.4-1.5-.4-1.5zM313.5 228.7l-.3-.9c-.2-.6-.6-1.4-1-2.3-.5-.9-1.1-2-1.7-3.1-.3-.6-.6-1.2-1-1.8-.3-.6-.6-1.2-.9-1.9-.6-1.3-1.2-2.5-1.8-3.7-.6-1.2-1-2.3-1.5-3.3s-.7-1.8-1-2.3c-.2-.6-.4-.9-.4-.9s.2.3.5.8.8 1.3 1.3 2.2c.5.9 1.1 2 1.7 3.2.6 1.2 1.2 2.4 1.9 3.7.6 1.3 1.2 2.5 1.8 3.7.6 1.2 1.1 2.3 1.5 3.3.4 1 .6 1.9.7 2.5l.2.8zM321.1 228.4l-.8-1.6c-.4-.9-1-2.2-1.5-3.4-.5-1.3-1-2.5-1.4-3.5-.4-1-.6-1.6-.6-1.6s.5.5 1 1.4c.6.9 1.2 2.1 1.8 3.4.5 1.3.9 2.6 1.2 3.6.2 1 .3 1.7.3 1.7zM313.4 211.7l-.3-.9c-.2-.6-.6-1.4-1.1-2.3-.5-.9-1.2-1.9-2.1-2.9-.8-1-1.8-2.1-2.8-3.1-1-1-2-2-2.9-3-.9-1-1.7-2-2.4-2.8-.6-.9-1.1-1.7-1.4-2.2-.3-.6-.4-.9-.4-.9s.2.3.6.8c.4.5.9 1.2 1.6 2 .7.8 1.6 1.7 2.5 2.6 1 .9 2 1.9 3 3 1 1 2 2.1 2.8 3.2.8 1.1 1.4 2.2 1.9 3.2.2.5.4 1 .5 1.4.1.4.2.8.3 1.1.1.3.1.6.1.7l.1.1zM314.1 178.9l.6.6c.4.4 1 1 1.6 1.7.6.7 1.3 1.6 2.1 2.6.7 1 1.4 2.1 2.1 3.2.7 1.1 1.3 2.2 1.9 3.3.5 1.1 1 2.1 1.4 3 .4.9.6 1.7.8 2.2.2.5.3.8.3.8s-.6-1.1-1.6-2.8c-.9-1.7-2.2-3.9-3.5-6.1-1.3-2.2-2.8-4.3-3.8-5.9-1.2-1.6-1.9-2.6-1.9-2.6zM325.9 200.6s.6.8 1.5 2.1c.8 1.3 1.9 3.1 2.7 5 .4 1 .7 1.9 1 2.9.3.9.4 1.8.5 2.6.2 1.5.2 2.6.2 2.6s-.1-.2-.2-.7c-.1-.4-.3-1.1-.5-1.8-.4-1.5-1-3.4-1.8-5.2-.8-1.9-1.7-3.7-2.3-5.1-.3-.7-.6-1.3-.8-1.7-.2-.5-.3-.7-.3-.7zM334 200.9l-.3-.6c-.2-.4-.5-.9-.8-1.5-.7-1.2-1.6-2.9-2.5-4.6-.9-1.7-1.8-3.3-2.4-4.6-.3-.6-.6-1.2-.8-1.5l-.3-.6s.6.7 1.5 1.9c.9 1.1 1.9 2.8 2.8 4.4.9 1.7 1.7 3.4 2.1 4.8.5 1.4.7 2.3.7 2.3zM229.2 212.1l.7.7c.4.5 1.1 1.2 1.9 2 .7.8 1.6 1.8 2.5 2.9.9 1.1 1.9 2.2 2.8 3.4.9 1.2 1.9 2.3 2.8 3.4.9 1.1 1.6 2.2 2.3 3.1.7.9 1.2 1.7 1.6 2.2.4.5.6.9.6.9l-.7-.7c-.4-.5-1.1-1.2-1.9-2-.7-.8-1.6-1.8-2.5-2.9-.9-1.1-1.9-2.2-2.8-3.4-.9-1.2-1.9-2.3-2.8-3.4-.9-1.1-1.6-2.2-2.3-3.1-.7-.9-1.2-1.7-1.6-2.2l-.6-.9zM245.7 225.5l.5.5c.3.4.8.9 1.3 1.5s1.1 1.4 1.7 2.1c.6.8 1.3 1.7 1.8 2.7l.6 1.5c.2.5.3 1 .5 1.5.3 1 .5 1.8.8 2.6.2.4.3.7.5 1 .2.3.3.5.5.7.3.4.5.6.5.6s-.1 0-.2-.1-.3-.2-.4-.3l-.6-.6-.6-.9c-.4-.7-.8-1.6-1.1-2.5-.2-.5-.3-.9-.5-1.4-.2-.5-.4-.9-.6-1.4-.4-.9-1.1-1.8-1.6-2.6-.6-.8-1.1-1.6-1.5-2.3-.4-.7-.7-1.3-1-1.7l-.6-.9zM264.8 243.9s-.1-.1-.2-.4c-.1-.3-.3-.6-.5-1-.4-.8-1-1.8-1.7-2.8-.7-1-1.4-2-1.9-2.7-.5-.8-.8-1.3-.8-1.3s.5.4 1.2 1 1.5 1.5 2.3 2.6c.3.5.7 1.1.9 1.6.2.5.4 1.1.5 1.5.1.5.1.9.1 1.1.1.3.1.4.1.4zM253.5 226.6s-.2-.2-.5-.6c-.3-.4-.8-.9-1.3-1.6-1.1-1.3-2.5-3.2-3.9-5-1.4-1.8-2.8-3.6-3.8-5-.5-.7-.9-1.3-1.2-1.7-.3-.4-.5-.7-.5-.7s.9.8 2.1 2c1.2 1.2 2.7 3 4.1 4.8 1.4 1.8 2.7 3.7 3.6 5.2.8 1.6 1.4 2.6 1.4 2.6zM336.4 176.3s.5.5 1.1 1.3c.6.8 1.4 1.9 2.1 3.1.7 1.2 1.3 2.3 1.8 3.3.4.9.7 1.6.7 1.6s-.5-.5-1.1-1.3c-.6-.8-1.4-1.9-2.1-3.1-.7-1.2-1.3-2.3-1.8-3.3s-.7-1.6-.7-1.6zM343.5 190s.3.3.5.8c.3.5.6 1.2.8 1.8.2.7.4 1.4.5 2 .1.6.1 1 .1 1s-.3-.3-.5-.8c-.3-.5-.6-1.2-.8-1.8-.2-.7-.4-1.4-.5-2-.1-.6-.1-1-.1-1zM433.8 317.4s.1-.6.4-1.6c.1-.5.3-1.1.5-1.9.2-.7.4-1.5.7-2.4.5-1.7 1.2-3.8 2-5.9.4-1.1.8-2.2 1.3-3.3l1.5-3.3c.5-1.1 1-2.2 1.6-3.2.5-1.1 1.1-2.1 1.6-3.1 1.1-2 2.2-3.8 3.2-5.3.5-.8 1-1.5 1.4-2.1.4-.6.8-1.1 1.1-1.6.6-.8 1-1.3 1-1.3s-.3.5-.9 1.4c-.6.9-1.3 2.2-2.2 3.8-.5.8-.9 1.6-1.4 2.5-.5.9-1 1.9-1.5 2.9-1 2-2.1 4.2-3.1 6.3-1 2.2-2 4.4-2.8 6.5-.4 1.1-.8 2.1-1.2 3-.4 1-.7 1.9-1 2.7-.6 1.7-1.1 3.1-1.4 4.1-.6 1.2-.8 1.8-.8 1.8zM438.3 288.7s.1-.3.4-.8c.3-.5.6-1.3 1.1-2.1.5-.9 1.1-1.8 1.8-2.8.7-1 1.5-2.1 2.3-3.1.8-1 1.7-2 2.6-2.9.9-.9 1.7-1.7 2.4-2.3.7-.6 1.4-1.1 1.8-1.5.5-.3.7-.5.7-.5s-.9 1-2.2 2.4c-1.3 1.4-3 3.4-4.7 5.4-1.6 2-3.2 4.1-4.3 5.6-1.2 1.5-1.9 2.6-1.9 2.6zM455.2 269.4s.3-.6.9-1.3c.6-.8 1.5-1.7 2.5-2.6 1-.8 2-1.6 2.9-2 .8-.5 1.5-.7 1.5-.7s-.4.5-1.2 1.1c-.7.7-1.7 1.5-2.6 2.3-1 .8-1.9 1.6-2.7 2.2-.7.6-1.3 1-1.3 1zM464.5 279.5l-.6.6c-.4.4-.9 1-1.5 1.7-1.2 1.4-2.8 3.2-4.4 5.1-1.6 1.9-3.1 3.8-4.2 5.3-.6.7-1 1.3-1.4 1.8-.3.4-.5.7-.5.7s.1-.3.4-.8c.3-.5.6-1.2 1.1-2 .5-.8 1.1-1.7 1.7-2.7s1.4-1.9 2.2-2.9c.8-.9 1.6-1.9 2.4-2.7.8-.8 1.6-1.6 2.3-2.2.7-.6 1.3-1.1 1.7-1.4.5-.4.8-.5.8-.5zM448.1 300.8s-.1.2-.2.6c-.1.4-.3.9-.5 1.5-.4 1.3-1.1 2.9-1.7 4.5-.7 1.6-1.5 3.2-2.1 4.4-.3.6-.6 1.1-.8 1.4-.2.3-.3.5-.3.5s.1-.2.2-.6c.1-.4.3-.9.5-1.5.4-1.3 1.1-2.9 1.8-4.5s1.5-3.2 2.1-4.4c.3-.6.6-1.1.8-1.4.1-.3.2-.5.2-.5zM439.7 327.7l.6-1.2c.4-.8.9-1.9 1.7-3.1.7-1.3 1.6-2.8 2.5-4.3 1-1.6 2.1-3.2 3.2-4.8 1.1-1.6 2.3-3.2 3.4-4.6 1.1-1.4 2.2-2.8 3.2-3.9.9-1.1 1.8-2 2.4-2.6.6-.6.9-1 .9-1s-1.2 1.6-2.9 3.9c-.9 1.2-1.9 2.6-3 4-1.1 1.5-2.2 3.1-3.3 4.7-1.1 1.6-2.2 3.2-3.2 4.7s-2 2.9-2.8 4.2c-1.6 2.4-2.7 4-2.7 4zM460.3 298.2s.1-.4.4-1c.3-.6.7-1.2 1.3-1.8.6-.6 1.2-1.1 1.8-1.4.5-.3.9-.4.9-.4s-.2.4-.6.8c-.4.5-.9 1-1.4 1.6-.5.6-1.1 1.1-1.5 1.5-.6.4-.9.7-.9.7zM432 274.8s.2-.8.7-1.9c.5-1.1 1.3-2.6 2.2-3.9.9-1.4 1.9-2.6 2.8-3.5.8-.9 1.5-1.4 1.5-1.4s-.4.7-1.1 1.7c-.7 1-1.6 2.4-2.5 3.7-.9 1.3-1.8 2.7-2.5 3.7-.6 1-1.1 1.6-1.1 1.6zM441.5 261s.2-.3.5-.8c.3-.4.7-1 1.2-1.6.4-.5.9-1.1 1.3-1.5.4-.4.7-.6.7-.6s0 .4-.2.9-.6 1.2-1 1.8c-.5.6-1 1.1-1.5 1.4-.7.3-1 .4-1 .4zM443.7 236.8c.3-1.2 1-2.4 2-3.2l.2.3c-.5.5-1 .9-1.5 1.4-.5.5-1 1-1.4 1.5-.5.5-.9 1-1.3 1.5s-.8 1.1-1.2 1.6c-1.6 2.2-3 4.5-4.3 6.9-1.3 2.4-2.6 4.7-4 7.1-.7 1.2-1.4 2.4-2.1 3.5-.7 1.2-1.4 2.3-2.1 3.5.6-1.2 1.2-2.5 1.8-3.7l1.8-3.6c1.2-2.4 2.5-4.8 3.8-7.2 1.3-2.4 2.8-4.7 4.4-6.9.8-1.1 1.7-2.1 2.7-3.1.5-.5 1-1 1.5-1.4.5-.5 1.1-.9 1.6-1.3l.2.3c-.8.6-1.6 1.6-2.1 2.8zM439.4 224.9s-.4.6-1.1 1.5c-.7.9-1.6 2.1-2.4 3.3-.8 1.2-1.6 2.4-2.2 3.4-.6.9-1 1.6-1 1.6s.1-.7.6-1.8c.2-.5.5-1.1.8-1.8.3-.6.7-1.3 1.2-1.9.4-.6.9-1.2 1.4-1.7.5-.5.9-1 1.4-1.4.6-.9 1.3-1.2 1.3-1.2zM429.9 239.9s-.2.5-.5 1.3c-.4.8-.9 1.7-1.5 2.7-.6.9-1.3 1.8-1.8 2.4-.5.6-1 1-1 1s.2-.5.5-1.3c.4-.8.9-1.7 1.5-2.7.6-.9 1.3-1.8 1.8-2.4.5-.6 1-1 1-1zM430.5 248.1s-.2.3-.5.8-.8 1.2-1.4 2.1c-.6.9-1.2 1.9-1.9 3s-1.4 2.3-2.1 3.4c-.7 1.2-1.4 2.4-2 3.5-.3.6-.6 1.1-.8 1.7-.2.5-.5 1-.7 1.5-.4.9-.7 1.8-.9 2.3l-.3.9s0-.3.2-.9c.1-.3.1-.7.2-1.1.1-.4.2-.9.4-1.4.3-1 .7-2.2 1.3-3.4l.9-1.8c.3-.6.7-1.2 1-1.8.7-1.2 1.5-2.4 2.3-3.4.8-1.1 1.5-2 2.2-2.8 1.2-1.6 2.1-2.6 2.1-2.6zM408.1 250.8l.3-.9c.2-.6.4-1.4.8-2.4s.8-2.2 1.3-3.4c.5-1.2 1.1-2.5 1.7-3.8.6-1.3 1.3-2.5 1.9-3.7.6-1.2 1.3-2.2 1.8-3.1.5-.9 1.1-1.6 1.4-2.2.4-.5.6-.8.6-.8s-.1.3-.4.9c-.3.6-.6 1.4-1.1 2.3-.9 1.9-2.2 4.4-3.4 7-1.2 2.5-2.5 5.1-3.4 7-.5 1-.9 1.8-1.1 2.3-.2.5-.4.8-.4.8zM420.1 223.4s.1-.2.2-.5c.2-.3.3-.8.6-1.4.5-1.1 1.3-2.6 2.2-4.1.9-1.4 1.8-2.9 2.5-3.9.4-.5.7-.9.9-1.2.2-.3.4-.5.4-.5s-.1.2-.2.5c-.2.3-.3.8-.6 1.4-.5 1.1-1.3 2.6-2.2 4.1-.9 1.4-1.8 2.9-2.5 3.9-.4.5-.7.9-.9 1.2-.3.3-.4.5-.4.5zM405 231.8s0-.3.1-.8.2-1.3.4-2.2c.2-.9.5-1.9.8-3 .3-1.1.7-2.2 1.1-3.4.4-1.1.9-2.2 1.4-3.3s1-2 1.4-2.7c.4-.8.9-1.4 1.2-1.9.3-.4.5-.7.5-.7s-.1.3-.3.8c-.2.5-.5 1.2-.8 2-.7 1.7-1.6 3.9-2.5 6.1-.9 2.2-1.7 4.5-2.3 6.2-.3.8-.5 1.6-.7 2.1-.2.5-.3.8-.3.8zM355.5 194.7s-.3-.7-.6-1.8-.8-2.5-1.2-3.9c-.4-1.4-.8-2.9-1.1-4-.3-1.1-.4-1.8-.4-1.8s.4.6.9 1.7c.5 1 1.1 2.4 1.5 3.9.4 1.5.7 3 .8 4.1.1 1 .1 1.8.1 1.8zM366.2 182.1s.4.6 1 1.6c.3.5.5 1.1.8 1.7.3.6.5 1.3.7 2.1.4 1.4.6 2.9.7 4 .1 1.1 0 1.8 0 1.8s-.2-.7-.5-1.8-.6-2.5-1-3.8c-.4-1.4-.8-2.8-1.1-3.8-.4-1.1-.6-1.8-.6-1.8zM378.6 206.3s-.1-1.1-.1-2.7c-.1-1.6-.2-3.7-.4-5.8-.2-2.1-.5-4.2-.8-5.8-.1-.8-.2-1.5-.3-1.9-.1-.5-.1-.7-.1-.7s.1.2.3.7c.2.4.4 1.1.6 1.9.2.8.5 1.7.7 2.7.2 1 .4 2.1.5 3.1.1 1.1.2 2.2.2 3.2s0 2-.1 2.8c-.1.8-.2 1.5-.2 1.9-.3.4-.3.6-.3.6zM385.4 200.5s.1.4.2 1c.1.7.3 1.6.5 2.7s.4 2.4.5 3.9c.2 1.4.3 2.9.4 4.4.1 1.5.1 3 .1 4.5 0 1.4 0 2.8-.1 3.9 0 1.1-.1 2.1-.2 2.7-.1.7-.1 1-.1 1s0-.4-.1-1c0-.7-.1-1.6-.2-2.7-.1-2.3-.3-5.3-.5-8.3-.2-3-.4-6-.5-8.3-.1-1.1-.1-2.1-.2-2.7.2-.7.2-1.1.2-1.1zM392.1 215.7v-.7c0-.4 0-1-.1-1.7 0-1.4-.1-3.3-.1-5.2-.1-1.9-.2-3.8-.2-5.2 0-.7-.1-1.3-.1-1.7v-.7s.3.9.6 2.3.5 3.3.6 5.3v2.8c0 .9-.1 1.7-.2 2.5-.1.7-.2 1.3-.3 1.7-.2.4-.2.6-.2.6zM385.1 195.5s-.3-.5-.7-1.4c-.4-.8-.9-2-1.3-3.2-.4-1.2-.7-2.4-.9-3.3-.2-.9-.2-1.6-.2-1.6s.3.5.7 1.4c.4.8.9 2 1.3 3.2.4 1.2.7 2.4.9 3.3.2 1 .2 1.6.2 1.6zM398.4 194.2s0 .5.1 1.5c0 .9.1 2.2.1 3.8 0 1.6 0 3.4-.1 5.4-.1 2-.2 4.1-.4 6.2-.2 2.1-.4 4.2-.7 6.2-.3 2-.6 3.8-.8 5.4-.3 1.6-.5 2.9-.7 3.8-.2.9-.3 1.4-.3 1.4s.1-.5.1-1.4c.1-.9.2-2.2.4-3.8.2-1.6.3-3.4.5-5.4.2-2 .4-4.1.6-6.2.2-2.1.3-4.2.5-6.2.1-2 .3-3.8.4-5.4.1-1.6.2-2.9.3-3.8v-1.5zM402.5 219.3s-.2-.8-.3-1.9c-.1-1.1-.2-2.7-.1-4.2s.3-3 .6-4.2c.3-1.1.6-1.8.6-1.8v1.9c0 1.1-.1 2.6-.2 4.2-.1 1.5-.2 3-.3 4.1-.2 1.1-.3 1.9-.3 1.9zM403.8 203.2s-.2-.4-.3-1.1c-.1-.6-.2-1.5 0-2.4.1-.9.4-1.7.7-2.3.3-.6.6-.9.6-.9s0 .5-.1 1.1c-.1.6-.2 1.5-.3 2.3-.1.8-.2 1.6-.3 2.3-.2.5-.3 1-.3 1zM232.1 233.7s.2.2.5.6c.3.3.8.8 1.3 1.4 1.1 1.1 2.8 2.4 4.2 4.1.4.4.7.8 1 1.3.3.4.6.9.8 1.3.5.9.8 1.8 1.2 2.4.4.7.7 1.2 1.1 1.5.3.3.6.5.6.5s-.1 0-.2-.1c-.1 0-.3-.1-.5-.3-.4-.3-.9-.7-1.4-1.4-.5-.7-.9-1.5-1.4-2.3-.3-.4-.5-.8-.8-1.2-.3-.4-.6-.8-1-1.2-.7-.8-1.4-1.5-2.1-2.3-.7-.7-1.3-1.4-1.8-2.1-.5-.6-.8-1.2-1.1-1.6-.3-.3-.4-.6-.4-.6zM251.4 249.8s0-.2-.1-.5-.3-.7-.6-1.1c-.3-.4-.7-.9-1.2-1.4-.4-.5-.9-1.1-1.4-1.6-.9-1.1-1.8-2.2-2.5-3.1-.7-.8-1.1-1.4-1.1-1.4s.6.4 1.5 1.1c.8.7 1.9 1.7 2.8 2.8.5.6.9 1.1 1.3 1.7.4.6.7 1.1 1 1.6.2.5.3 1 .3 1.3.1.4 0 .6 0 .6zM241.6 236.8s-.7-.5-1.6-1.4c-.9-.9-2.1-2.2-3.2-3.5-1.1-1.3-2.1-2.7-2.8-3.8-.7-1.1-1.1-1.9-1.1-1.9s.2.1.4.4l1.1 1.1c.9.9 2 2.2 3.1 3.6 1.1 1.3 2.2 2.7 2.9 3.7.4.5.7 1 .9 1.3.2.4.3.5.3.5zM218.6 222.4s.7.4 1.6 1.2c.9.7 2.1 1.8 3.3 2.9 1.1 1.1 2.2 2.2 3 3.1.8.9 1.3 1.6 1.3 1.6s-.7-.4-1.6-1.2c-.9-.7-2.1-1.8-3.3-2.9-1.1-1.1-2.2-2.2-3-3.1-.8-.9-1.3-1.6-1.3-1.6z"/><g><path class="st9" d="M176.4 277.9s-.1.5-.3 1.2c0 .2-.1.4-.1.6-.1.2-.1.4-.2.6-.1.4-.2.9-.4 1.4-.5 1.9-1.3 3.7-1.3 3.7-.1.3-.5.4-.8.3s-.4-.5-.3-.8c0 0 .8-1.8 1.3-3.6.1-.5.3-.9.4-1.3.1-.2.1-.4.2-.6 0-.2.1-.4.1-.6.2-.7.3-1.2.3-1.2.1-.3.3-.4.6-.4.4.2.6.4.5.7z"/></g><g><path class="st9" d="M186 272.9v1.8c0 1.1-.1 2.5-.3 3.9l-.3 2.1c-.1.3-.1.6-.2 1v.2l-.2.1c0 .1-.1.3-.1.4-.3 1-.4 1.7-.4 1.7-.1.4-.5.6-.9.5-.4-.1-.6-.5-.5-.9 0 0 .2-.7.5-1.7 0-.1.1-.3.1-.4l.1-.2.1-.2c.1-.3.2-.6.2-.9.2-.6.3-1.3.4-2 .6-2.7.7-5.5.7-5.5 0-.2.2-.4.4-.4.2.1.4.3.4.5z"/></g><g><path class="st9" d="M194.7 280.8s-.1.9-.4 2.3c-.1.4-.1.7-.2 1.2l-.3 1.2c-.2.9-.5 1.8-.9 2.7-.3.9-.7 1.8-1.1 2.6-.4.8-.8 1.5-1.1 2.2-.4.6-.7 1.1-.9 1.5-.2.3-.4.5-.4.5-.2.3-.6.3-.8.1-.2-.2-.3-.5-.2-.7 0 0 .4-.8 1-2.1s1.3-2.9 1.9-4.7c.3-.9.6-1.7.8-2.5.1-.4.2-.8.4-1.2.1-.3.2-.7.3-1.1.3-1.4.6-2.3.6-2.3.1-.4.5-.6.9-.5.3.1.5.5.4.8z"/></g><g><path class="st9" d="M202.4 292.4s-.2.5-.5 1.3-.8 1.8-1.3 2.7c-.5 1-1.2 1.9-1.6 2.6-.5.7-.9 1.1-.9 1.1-.2.2-.6.3-.8.1-.2-.2-.3-.5-.1-.7 0 0 1.1-1.8 2.1-3.7.5-.9 1-1.9 1.3-2.6.4-.7.6-1.2.6-1.2.2-.3.6-.5.9-.3.3.1.5.4.3.7z"/></g><g><path class="st9" d="M205.4 272.6s.1.7.1 1.9c0 1.1 0 2.6-.1 4.1-.1 1.5-.3 3-.5 4.1-.2 1.1-.4 1.8-.4 1.8 0 .2-.2.3-.5.3-.2 0-.3-.2-.3-.4 0 0 .1-.7.3-1.8.1-1.1.3-2.6.3-4 0-1.5 0-2.9-.1-4s-.2-1.8-.2-1.8c0-.3.2-.7.5-.7.5-.1.8.1.9.5z"/></g><g><path class="st9" d="M219.4 304.8s-.4.6-1 1.4c-.6.8-1.4 1.9-2.4 2.9-.9 1-2 1.9-2.8 2.6-.8.6-1.5 1-1.5 1-.4.2-1 .1-1.2-.3-.2-.4-.1-1 .3-1.2 0 0 .6-.3 1.4-.8.8-.5 1.8-1.3 2.7-2.2.9-.9 1.8-1.9 2.4-2.6.6-.8 1-1.3 1-1.3.2-.3.6-.3.8-.1.4-.1.4.3.3.6z"/></g><g><path class="st9" d="M229.9 306.2s-.3.5-.8 1.3-1.2 1.8-2 2.8c-.8 1-1.6 1.9-2.3 2.6-.7.7-1.2 1.1-1.2 1.1-.4.3-1 .2-1.3-.1s-.2-1 .1-1.3h.1s.5-.3 1.2-.9c.7-.5 1.6-1.3 2.4-2.2.8-.9 1.6-1.8 2.1-2.5s.9-1.2.9-1.2c.1-.2.4-.3.7-.1.1 0 .2.2.1.5z"/></g><g><path class="st9" d="M215.6 272.4s.1.3.2.8c.1.6.3 1.4.4 2.3.1.5.1 1 .2 1.5 0 .5.1 1.1.1 1.7 0 1.2 0 2.5-.1 3.8-.1 1.3-.3 2.6-.5 3.7-.1.6-.2 1.2-.4 1.7-.1.5-.3 1-.4 1.5l-1 3c-.1.3-.5.5-.8.4-.3-.1-.5-.4-.4-.7 0 0 .3-1.2.7-3.1.1-.4.2-.9.3-1.4.1-.5.2-1.1.3-1.6.2-1.1.3-2.4.4-3.6.2-2.5.2-4.9.1-6.8-.1-.9-.1-1.7-.2-2.2-.1-.5-.1-.9-.1-.9 0-.3.2-.6.5-.7.3.1.6.3.7.6z"/></g><g><path class="st9" d="M226.1 280.1s.1.3.1.7c.1.5.1 1.1.2 1.9.1 1.6.1 3.7-.3 5.8-.2 1.1-.4 2.1-.6 3.1-.3 1-.6 1.8-.9 2.6-.6 1.5-1.2 2.4-1.2 2.4-.1.2-.4.3-.6.1-.2-.1-.2-.3-.2-.5l.5-2.5c.3-1.5.8-3.5 1.1-5.5.2-1 .3-2 .4-3 .1-.9.2-1.8.3-2.6.1-.8.1-1.4.2-1.8 0-.5.1-.7.1-.7 0-.2.2-.4.5-.4.3.1.4.2.4.4z"/></g><g><path class="st9" d="M234.3 272.2s.1.2.4.7c.1.2.3.5.4.8.2.3.3.7.5 1.1.3.8.6 1.8.8 2.8.2 1 .4 2.2.5 3.3.1.6.1 1.1.1 1.7v1.6c0 1.1-.2 2-.3 2.9-.3 1.7-.7 2.7-.7 2.7-.1.3-.5.5-.9.4-.2-.1-.4-.3-.4-.5 0 0 0-.3-.1-.8 0-.5-.1-1.1-.1-2 0-.8-.1-1.7-.1-2.7-.1-1-.1-2-.2-3.1 0-.5-.1-1-.2-1.6-.1-.5-.1-1-.2-1.5-.1-1-.3-1.9-.4-2.6-.1-.4-.1-.7-.2-1-.1-.3-.1-.6-.2-.8-.1-.5-.2-.7-.2-.7-.1-.5.2-.9.6-1 .4-.2.8 0 .9.3z"/></g><g><path class="st9" d="M235.5 287s-.7.1-1.6-.1c-1-.1-2.2-.5-3.4-.8-1.2-.4-2.4-.8-3.4-1.1-.9-.3-1.5-.6-1.5-.6-.2-.1-.3-.4-.2-.6.1-.2.2-.3.4-.3 0 0 .7 0 1.6.2 1 .1 2.2.3 3.5.6 1.3.3 2.5.5 3.4.9.9.3 1.5.7 1.5.7.3.2.4.6.2.9-.1.1-.3.2-.5.2z"/></g><g><path class="st9" d="M224.4 292.2l-10.1-2.5c-.3-.1-.5-.4-.4-.7.1-.3.4-.5.7-.4l10.1 2.5c.3.1.5.4.4.7s-.4.5-.7.4z"/></g><g><path class="st9" d="M225.8 311.3l-9.9-2.8c-.3-.1-.5-.4-.4-.7.1-.3.4-.5.7-.4l10 2.2c.5.1.8.6.7 1.1-.1.4-.5.7-1.1.6.1 0 0 0 0 0z"/></g><g><path class="st9" d="M215.5 277.8l-10.6-2.5c-.3-.1-.5-.4-.4-.7.1-.3.4-.5.7-.4l10.6 2.8c.2.1.4.3.3.5-.2.2-.4.3-.6.3z"/></g><g><path class="st9" d="M200.5 295.4l-10.1-2.8c-.3-.1-.4-.3-.3-.6.1-.2.3-.4.6-.3L201 294c.4.1.6.5.5.8s-.6.7-1 .6z"/></g><g><path class="st9" d="M193.6 283.2l-9-2.1c-.3-.1-.6-.4-.5-.8.1-.3.4-.6.8-.5l9 2.4c.3.1.4.4.4.6-.2.3-.5.4-.7.4z"/></g><g><path class="st9" d="M183.8 283.9l-8.8-2.4c-.2-.1-.3-.3-.3-.5.1-.2.3-.3.5-.3l8.9 2c.3.1.5.4.4.7 0 .4-.4.6-.7.5z"/></g><g><path class="st10" d="M221.6 268.9c-.1 0-.2 0-.4-.1-.7-.2-1.1-1-.9-1.7 1.4-4.8 2.9-8.9 4.4-12.3.3-.7 1.1-1 1.8-.7.7.3 1 1.1.7 1.8-1.5 3.3-2.9 7.3-4.3 12-.1.7-.7 1-1.3 1z"/></g><g><path class="st11" d="M366 266.4l.1.1h.1c.1 0 .4 0 .6-.2 0-.1.1-.1.1-.2v-.3-1.5-3.8c0-5.7 0-14-.5-23.8-.2-4.9-.6-10.2-1.2-15.8-.3-2.8-.7-5.7-1.2-8.5-.5-2.9-1.2-5.8-2.1-8.7-.5-1.4-1-2.8-1.8-4.1-.7-1.3-1.7-2.4-2.8-2.9-.3-.1-.6-.2-.9-.2h-.2s-.1 0 0 0h-.2l-.6.1c-.4 0-.7.2-1 .2-.3.1-.6.2-1 .4-.7.3-1.3.7-2 1.1-.6.5-1.3.9-1.9 1.4-2.5 2-4.7 4.3-6.9 6.7-2.2 2.4-4.3 4.9-6.3 7.5-4.1 5.1-7.9 10.5-11.6 15.8-3.7 5.3-7.2 10.7-10.4 15.9l-2.4 3.9c-.4.6-.8 1.3-1.2 1.9-.2.4-.3.5-.3.8 0 .3.1.6.3.7.2.2.4.3.7.2l1.1-.2c.7-.1 1.4-.3 2.2-.3.7-.1 1.5-.1 2.2-.2h2.2c.7 0 1.4 0 2.1.1.7 0 1.4.1 2.1.1 1.4.2 2.7.3 4.1.5l3.9.6c.6.1 1.3.2 1.9.4.6.1 1.2.3 1.8.4 9.7 2.3 17.4 5.5 22.6 7.9 2.6 1.2 4.7 2.3 6 3 1.7.6 2.4 1 2.4 1zm-1.1 1.9s-.7-.4-2-1.1c-1.3-.8-3.3-1.8-5.9-3.1-2.6-1.3-5.7-2.7-9.4-4.2s-7.9-3-12.7-4.3c-4.7-1.3-10-2.4-15.6-2.4h-2.1c-.7.1-1.4.1-2.1.2-.7 0-1.4.2-2.2.3l-1.1.2c-.4.1-1 0-1.3-.4-.3-.3-.5-.8-.6-1.2 0-.2 0-.5.1-.7.1-.2.1-.2.1-.3l.1-.2c.4-.6.8-1.3 1.1-2 .8-1.3 1.6-2.6 2.3-3.9 3.2-5.3 6.5-10.8 10-16.2 3.5-5.5 7.2-10.9 11.2-16.2 2-2.6 4.1-5.2 6.3-7.7s4.5-4.8 7.1-6.9c.6-.5 1.4-1 2-1.5.7-.4 1.4-.9 2.2-1.2.4-.2.8-.4 1.3-.5.4-.1 1-.3 1.3-.3l.6-.1h.8c.5 0 1 .2 1.4.4.9.4 1.6 1 2.2 1.6.6.7 1.1 1.4 1.5 2.1.8 1.4 1.4 2.9 2 4.4 1 3 1.7 6 2.2 9 .5 2.9.9 5.8 1.3 8.7.7 5.6 1.1 11 1.3 15.9.5 9.9.6 18.1.6 23.9v5.5c0 .3-.1.7-.2 1-.1.3-.3.6-.5.9-.9 1-2 1.1-2.6.9-.3 0-.7-.2-.7-.2.1-.3.1-.3 0-.4z"/></g><g><path class="st10" d="M184.1 390.8s3.3-12.7 6.4-9.6c1.7 1.7 4.6 19.7 3.7 21.5-1 2.1-5.2 3.8-7.3 1.7"/></g><g><path class="st10" d="M196.8 381.1c-3 3.5 2.9 19.3 6.9 21.8 3.2 1.9 19-2 21.1-7.7 2-5.7-25.7-16.7-28-14.1z"/></g><g><path class="st11" d="M213.1 194.9s1.4.6 3.4 1.5c2.1.9 4.8 2.2 7.5 3.5 2.7 1.3 5.4 2.7 7.3 3.9 1 .6 1.8 1.1 2.4 1.5l.9.6c.5.4.6 1.1.2 1.6s-1.1.6-1.6.2h-.1s-.3-.2-.7-.6c-.5-.4-1.2-.9-2.1-1.5-1.8-1.2-4.4-2.8-7-4.2-5.2-2.9-10.6-5.4-10.6-5.4-.3-.1-.4-.5-.3-.7.1-.4.4-.6.7-.4z"/></g><g><path class="st10" d="M227.5 268.5h-.3c-.5-.2-.7-.7-.6-1.1 1.1-3.4 5.7-5 9.3-6.2 1.1-.4 2.2-.8 3-1.1 3-1.4 5.1-6 5.2-6.1.2-.5.7-.7 1.2-.4.5.2.7.7.4 1.2-.1.2-2.4 5.3-6 7-.9.4-2 .8-3.2 1.2-3.3 1.1-7.4 2.6-8.2 5.1-.1.2-.5.4-.8.4z"/></g><g><path class="st10" d="M296.3 275.2h2c1.3 0 3.1-.1 5.3-.1h7.5c.7 0 1.3 0 1.9-.2h.2l.2-.1.3-.3c.2-.2.4-.5.5-.8.4-1.2.2-2.7-.7-3.6-.9-1-2.2-1.5-3.5-1.7-1.4-.2-2.7 0-4.1.2-2.7.4-5.1 1.1-7.1 1.9-1 .4-1.9.8-2.6 1.3-.7.5-1.3 1-1.7 1.4-.4.5-.6.9-.8 1.2-.1.3-.2.5-.2.5s0-.2.1-.5.3-.8.7-1.3c.4-.5.9-1.1 1.7-1.6.7-.5 1.6-1 2.6-1.5 2-.9 4.4-1.8 7.2-2.2 1.4-.2 2.8-.4 4.3-.2.7.1 1.5.2 2.2.6.4.1.7.3 1 .6.3.2.6.5.9.8 1 1.3 1.3 3 .7 4.5-.2.4-.4.7-.7 1-.1.1-.3.3-.5.4l-.2.1-.1.1-.1.1c-.8.3-1.5.3-2.2.3-2.7-.1-5.3-.2-7.4-.3-2.2-.1-4-.2-5.3-.3-1.4-.3-2.1-.3-2.1-.3z"/></g><g><path class="st10" d="M294.7 281s.1 0 .4-.1c.2-.1.6-.2 1.1-.3.2-.1.5-.1.8-.2.3-.1.6-.1 1-.1.7-.1 1.5 0 2.3.1.9.1 1.8.3 2.7.7.9.4 1.9.8 2.8 1.5.9.6 1.7 1.4 2.4 2.3.7.9 1.3 2 1.5 3.2.1.6.1 1.2-.1 1.9-.2.6-.5 1.2-1 1.6-1 .9-2.4.9-3.5.7-1.1-.2-2.1-.6-3-1-.9-.4-1.7-.8-2.4-1.2-1.5-.7-2.8-1.4-3.6-1.9-.9-.5-1.4-.7-1.4-.7s.5.2 1.4.6c.9.4 2.2.9 3.8 1.6.8.3 1.6.7 2.5 1.1.9.4 1.8.7 2.8.9 1 .2 2.1 0 2.7-.6.8-.7 1-1.7.8-2.7-.2-1-.7-2-1.3-2.8-.6-.8-1.4-1.6-2.2-2.2-.8-.6-1.7-1.1-2.5-1.5-.9-.4-1.7-.6-2.5-.8-.8-.1-1.6-.2-2.3-.2h-.9c-.3 0-.6 0-.8.1-.5.1-.9.1-1.1.2-.3-.2-.4-.2-.4-.2z"/></g><g><path class="st10" d="M241.7 342s-.2.7-.5 1.9-.7 3-1.1 5.1c-.4 2.1-.7 4.7.1 7.2.4 1.2 1.1 2.4 2.2 3.2 1 .8 2.4 1.3 3.7 1 1.3-.2 2.5-1.1 2.9-2.2.5-1.2 0-2.5-.6-3.7-.6-1.2-1.3-2.4-1.6-3.6-.3-1.3-.3-2.5-.4-3.5-.1-1.1-.1-2.1-.4-2.9-.2-.8-.5-1.5-.9-2.1-.3-.5-.7-.9-1-1.1-.3-.2-.4-.3-.4-.3s.2.1.5.3c.3.2.7.5 1.1 1 .4.5.8 1.2 1 2.1.3.9.4 1.9.5 2.9.1 1.1.2 2.2.5 3.4.3 1.2 1 2.2 1.6 3.5.3.6.6 1.3.8 2 .1.4.1.8.1 1.2v.6c0 .2-.1.4-.2.6-.6 1.5-2 2.5-3.6 2.8-.4.1-.8.1-1.2.1-.2 0-.4 0-.6-.1-.2 0-.3-.1-.6-.1-.7-.2-1.4-.6-2-1.1-1.2-1-1.9-2.3-2.4-3.7-.4-1.4-.5-2.7-.4-4 .1-1.3.3-2.4.6-3.5.5-2.1 1-3.9 1.4-5.1.6-1.2.9-1.9.9-1.9z"/></g><g><path class="st10" d="M256.3 341.7l.3.3c.2.2.4.5.6.8.4.8.8 2 1 3.6.2 1.5.2 3.3 1 4.9l.3.6c.1.2.3.3.4.5.3.3.7.6 1.1.8.8.4 1.7.5 2.5 0 .7-.4 1.1-1.3 1.3-2.2.2-.9.1-1.9-.1-2.7-.4-1.8-1.2-3.3-2.1-4.5-.5-.6-1-1.1-1.4-1.5-.5-.4-.9-.7-1.3-.9-.4-.2-.7-.4-.9-.5-.2-.1-.3-.2-.3-.2s.1 0 .3.1c.2.1.6.2 1 .4s.9.5 1.4.8c.5.4 1.1.8 1.6 1.4 1 1.1 2.1 2.7 2.5 4.6.1.5.2 1 .2 1.5s0 1-.1 1.6c-.2 1-.6 2.2-1.7 2.9-.5.3-1.1.5-1.7.4-.6 0-1.1-.2-1.6-.5s-.9-.6-1.3-1c-.2-.2-.3-.4-.5-.6-.1-.2-.3-.5-.4-.7-.4-.9-.6-1.9-.6-2.8-.1-.9-.1-1.7-.1-2.5-.1-1.5-.3-2.7-.6-3.5-.2-.4-.4-.7-.5-.9-.2-.1-.3-.2-.3-.2z"/></g><g><path class="st10" d="M211.1 345.4l-.9.9c-.3.3-.5.6-.8.9-.2.3-.5.7-.7 1-.2.3-.4.7-.6 1.1-.2.4-.3.7-.4 1.1l-.3 1.2c-.1.4-.2.8-.2 1.2 0 .4-.1.8-.1 1.2l-.2-.4c.2.1.4.2.6.2h.6c.4-.1.9-.3 1.2-.5.4-.3.7-.6 1-1 .3-.4.6-.8.7-1.2.2-.5.3-.9.5-1.5l.4-1.5c.1-.5.3-1 .5-1.5s.4-1 .8-1.4v.1c-.2-.4-.7-.6-1.2-.4.4-.3 1-.2 1.3.2v.1c-.5.9-.7 1.9-.9 3l-.3 1.6c-.1.5-.2 1.1-.4 1.6-.4 1.1-1.1 2-2 2.7-.5.3-1 .6-1.6.7-.3.1-.6 0-.9 0-.3 0-.6-.2-.9-.3l-.2-.1v-.3c0-.4 0-.9.1-1.3s.2-.8.3-1.3c.1-.4.3-.8.4-1.2.2-.4.4-.8.6-1.1.2-.4.4-.7.7-1.1.2-.3.5-.7.8-1l.9-.9c.5-.3.8-.5 1.2-.8z"/></g><g><path class="st10" d="M257.3 360s.1.2.2.7c.1.4.3 1 .6 1.6l.6.9.2.2.2.2c.1.1.3.2.5.3.4.1.8.2 1.2.1.4-.1.7-.3.9-.6.1-.3.1-.3.2-.5 0-.2 0-.4-.1-.6-.1-.4-.4-.8-.6-1.1-.3-.3-.6-.5-1-.7-.4-.2-.7-.3-1.1-.5-.7-.3-1.3-.5-1.7-.7-.4-.2-.6-.4-.6-.4s.2.1.6.2c.4.1 1 .2 1.7.4.4.1.8.2 1.2.4.4.1.9.4 1.2.8.4.4.7.8.9 1.3.1.3.2.6.1.9 0 .3-.1.7-.2.9-.3.6-.9.9-1.5 1-.6.1-1.1 0-1.6-.2-.2-.1-.5-.2-.7-.4-.1-.1-.2-.2-.3-.2-.1-.1-.2-.2-.2-.3-.3-.4-.5-.8-.6-1.1-.2-.7-.3-1.4-.3-1.8.2-.6.2-.8.2-.8z"/></g><g><path class="st10" d="M290.9 254.3c1.2 0 2.4-.1 3.5-.3 1.1-.3 2.3-.7 3-1.6.7-.8.9-2.1.7-3.1-.1-.5-.4-.9-.8-1.2-.4-.3-.9-.3-1.5-.3-.5 0-1.1.2-1.6.4-.6.2-1.1.5-1.6.7-1 .5-2 1.2-2.9 1.9-1.8 1.5-3.2 3.4-4.2 5.5l-.3-.4c1.2-.1 2.3-.4 3.4-.7 1.1-.3 2.2-.8 3.3-1.3-2 1.3-4.2 2.1-6.6 2.5l-.5.1.2-.5c.2-.6.5-1.1.8-1.7.3-.5.6-1.1 1-1.6.7-1 1.5-1.9 2.5-2.7s1.9-1.5 3-2.1c.5-.3 1.1-.5 1.7-.8.6-.2 1.2-.4 1.9-.5.6-.1 1.4.1 2 .4.6.4 1 1 1.1 1.7.2.7.1 1.3-.1 2-.2.6-.5 1.2-.9 1.7s-1 .8-1.6 1.1c-.6.3-1.2.4-1.8.5-1.3.5-2.5.5-3.7.3z"/></g><g><path class="st10" d="M331.8 323.5c0-.1-.1-.3-.1-.5-.1-.5-.3-1.1-.7-1.9-.4-.8-.9-1.7-1.6-2.7-.7-1-1.6-2-2.8-3-.6-.5-1.2-1-1.9-1.4-.3-.2-.7-.5-1.1-.7-.4-.2-.8-.4-1.1-.6-.8-.4-1.6-.7-2.4-1.1-.8-.4-1.7-.6-2.6-.8-.9-.3-1.9-.4-2.9-.5-1.1-.2-1.9-.2-2.7-.2h-1.5l-1.6.1c-1.1 0-2.1.3-3.1.5-.5.1-1 .3-1.5.5s-1 .3-1.5.5l-1.4.7c-.5.2-.9.5-1.3.7-.8.5-1.7 1.1-2.4 1.7-.4.3-.7.6-1.1.9-.3.3-.7.6-1 1-1.3 1.3-2.5 2.6-3.4 3.9-1 1.3-1.8 2.6-2.5 3.9-.7 1.2-1.2 2.4-1.7 3.5l-.6 1.5c-.2.5-.3.9-.4 1.3-.1.4-.2.8-.3 1.1-.1.3-.1.5-.2.8-.1.4-.1.6-.1.6-.1.6.1 1.1.6 1.5.6.4 1.5.2 1.9-.5l.3-.6c.1-.2.2-.4.4-.7.2-.2.3-.5.5-.8.4-.6.9-1.4 1.5-2.2.6-.8 1.3-1.8 2.1-2.7.8-1 1.7-2 2.7-3 .5-.5 1-1 1.6-1.5.5-.5 1.1-1 1.7-1.4.3-.2.6-.5.9-.7l.9-.6c.6-.4 1.3-.8 1.9-1.1.6-.4 1.3-.6 2-.9l1-.3c.3-.1.7-.2 1-.3.7-.1 1.4-.3 2.1-.3l1-.1h1.1c.9 0 1.8 0 2.4.1.7.1 1.4.1 2.1.3.7.1 1.4.2 2.1.4.3.1.7.2 1 .3l.9.3.9.3c.3.1.6.3.9.4.6.2 1.1.5 1.6.8.5.3 1 .6 1.4.9l1.2.9c.7.6 1.4 1.2 1.9 1.7s.9.9 1.1 1.2l.3.3c0 .1.1.1.1.1l.3.3c.3.3.8.5 1.3.4.7-.2 1.2-.9 1-1.6-.2-.4-.2-.5-.2-.7zM339.8 321.1c-.3-.7-.6-1.3-.9-1.9-.3-.6-.7-1.1-1-1.5-.2-.2-.3-.4-.5-.6l-.4-.4c-.2-.2-.4-.3-.4-.3-.1-.1-.4-.1-.5 0-.2.1-.3.4-.2.6 0 0 .1.1.3.4.2.3.3.6.6 1 .5.9 1.1 2.1 1.6 3.3.5 1.2 1 2.5 1.3 3.4.1.5.3.9.3 1.1.1.3.1.4.1.4.1.2.2.4.5.4s.5-.2.6-.5c0 0 .1-.8-.1-1.8-.3-.9-.7-2.3-1.3-3.6z"/><path class="st10" d="M470.5 276.6c0-.1 0-.1-.1-.2-4.6-15.6-14.1-38.5-33.5-59.1-.7-.8-1.4-1.5-2.2-2.3-2.2-2.2-4.6-4.5-7.1-6.7l-.4-.3c-9.2-8-19.5-14.7-30.6-20-7.8-3.7-16.1-6.7-24.9-9.1-9.3-2.5-19.3-3.9-29.5-4.3-1.8-.1-3.6-.1-5.5-.1-1.8 0-3.6 0-5.2.1-1.2 0-2.5.1-3.9.2-1.2.1-2.3.2-3.5.3-5.9.5-11.9 1.3-17.9 2.4-.4.1-.7.1-1 .2-2 .4-4.1.8-6.1 1.3-1.8.4-3.7.8-5.6 1.3-9 2.3-18 5.2-26.9 8.8-22.5 0-50.2.9-54.7 5.4-3.5 3.5 1.4 11.3 5.7 18.1.6 1 1.2 1.8 1.7 2.7-6.2 5-10 9.4-10.1 12.2 0 .3 0 .6.1.9.4 1.5 1.2 3.4 2.4 5.9v.2l.2.2c2.9 5.8 7.4 13.1 10.7 18.2 1.3 2.1 2.2 3.4 2.2 3.4l.3.5.6.1c3.8.7 8.8 1.3 14.5.2.3-.1.6-.1.9-.2h.4c1-.2 2-.5 3-.9 1.5-.5 3-1.2 4.4-1.9l4.3-2.3c1.4-.7 3.5-1.8 5.8-2.9 2.2-1.1 4.2-2 6.1-2.9l7.8-3.3c2.4-.3 5.7-.3 7.3.8.5.3.7.7.8 1.2.2 1.6-.8 3.9-1.8 6.2-1.6 3.4-3.3 7.3-1.9 11 .8 2 2.5 3.8 4.5 6 4.3 4.6 9.2 9.8 6.9 18.3-2.2 8.1-8.8 12.9-14 16.8-3 2.2-5.6 4.1-6.9 6.3-1.5 2.5-1.1 6.7-.6 11.2.7 6.3 1.3 12.8-3.1 14.9-4.6 2.3-9.5.1-14.2-2-3.1-1.4-6.1-2.7-8.8-2.6-3.1.2-6.7 4-10.6 8-4.2 4.3-8.9 9.2-11.2 7-3.7-3.5-.1-11.8 2.3-17.3.6-1.5 1.2-2.8 1.5-3.8.6-1.9.5-3.8-.4-5.7.6.2 1.1.4 1.4.5.7.2 1.4.3 2.2.3 3.6 0 7.4-2.1 11-6 3.9-4.3 7.1-10.4 8.6-16.7 3.1-12.4.3-27.8-8.7-30.1-3.3-.8-22.3-1-41 .1-37 2.1-38.1 6.4-38.5 8.1-.4 1.6-1.5 6 30.2 25.1 8 4.9 16.3 9.5 22.9 13-.3 1.3-.9 3.9-1.8 7.4-.7 2.7-1.5 6-2.6 9.5-.1.2-.2.4-.2.7l-.1.3-.1.2v.1c-.2.5-.4.9-.6 1.4-.2.5-.4 1-.6 1.4-.2.4-.5.9-.7 1.3-.4.9-1 1.8-1.6 2.8-.6 1-1.2 1.9-1.8 2.9-2.6 3.9-5.5 8.2-8.3 13-2.8 4.8-5.4 10.1-7.1 16-1.8 5.8-2.8 12.1-3 18.5 0 .8-.1 1.6-.1 2.4v2.4c.1.8.2 1.8.3 2.6.1.4.2.8.2 1.2l.3 1.2c.9 3.3 2.3 6.3 4 9.1 3.4 5.7 7.8 10.6 12.7 14.7 5 4.1 10.6 7.3 16.4 9.3 2.9 1 5.9 1.6 8.9 1.9.7.1 1.5.1 2.2.1h2.2c.7 0 1.4 0 2.1-.1.7 0 1.4-.1 2.1-.1 1.3-.1 2.7-.2 3.9-.4 5.3 4.4 15.2 9.2 25.9 9.2 3 0 6.1-.4 9.2-1.3 17.1-4.9 27.4-24 27.8-24.8.1-.1.1-.3.1-.4.7.4 1.5.7 2.4 1.1 3.2 1.3 7.2 2.7 11.9 3.7 4.7 1.1 10.1 1.8 16 2.1 5.9.2 12.4 0 19.1-1 6.7-1 13.8-2.6 20.7-5.1 7-2.5 13.9-5.9 20.6-9.9 3.3-2 6.6-4.3 9.7-6.7 3.1-2.4 6.2-4.9 9.1-7.7 5.8-5.6 10.7-11.9 14.5-18.7 3.9-6.8 6.7-14.1 8.5-21.3.3-1.1.5-2.2.8-3.3 1.2-2.2 2.7-4.5 4.3-6.9 10.6-15.6 27.7-34.1 34.5-41.3 1-1 1.5-2.4 1.5-3.8.3-3.3-.9-11.2-3.6-20.4zM219.9 211c-2.8-4.4-8.1-12.7-6.1-14.7 2.1-2.1 15.4-4.3 46.2-4.6l-2.7 1.2h-.1c-.5.2-.9.4-1.4.6l-.3.1c-1 .4-1.9.9-2.9 1.4-12.2 5.8-23.3 12.5-31.3 18.4-.3-.7-.8-1.5-1.4-2.4zm-59.5 64.7c.4-1.4 8.3-4.5 36-6 9.4-.5 18.5-.7 25.6-.7 7.6 0 13.1.2 14.5.6 6.6 1.6 9.9 14.4 6.8 26.8-1.5 5.9-4.4 11.6-8 15.6-3.6 3.9-7.4 5.7-10.5 4.9-2.8-.7-18.9-8.9-35.4-18.9-23.7-14.4-29.3-20.9-29-22.3zM471 299.3c-6.9 7.3-24.1 25.9-34.8 41.6-.3.4-.6.8-.8 1.2.5-3.7.8-7.2 1-10.7.3-6.8 0-13.2-.6-19.1-.6-5.9-1.6-11.2-2.6-15.9-1-4.7-2.1-8.7-3.1-12-1-3.3-1.9-5.8-2.6-7.6-.7-1.7-1.1-2.6-1.1-2.6-.2-.4-.6-.5-.9-.4-.4.1-.6.6-.4 1 0 0 .3.9.9 2.6.6 1.7 1.3 4.3 2.2 7.5 1.8 6.5 3.8 16.1 4.9 27.6.5 5.8.7 12.1.3 18.7-.4 6.6-1.4 13.5-3.2 20.5-1.8 6.9-4.6 13.9-8.3 20.4-3.7 6.5-8.5 12.6-14 17.8-5.5 5.3-11.7 10-18.1 14-6.4 4-13.1 7.3-19.9 9.8-6.8 2.5-13.5 4.2-20.1 5.3-6.5 1.1-12.8 1.5-18.6 1.4-5.8-.1-11.1-.7-15.7-1.6-4.6-.9-8.6-2-11.7-3.2-3.1-1.2-5.5-2.4-7-3.3-.8-.5-1.3-.8-1.7-1.1-.4-.3-.6-.4-.6-.4-.2-.2-.6-.1-.8.1-.2.2-.2.6.1.8 0 0 .2.2.6.4.4.3 1 .7 1.7 1.3.7.4 1.5 1 2.5 1.5l-.3.3c-.1.2-10.2 18.9-26.2 23.5-11.8 3.4-23.8-1.2-30.6-5.9.1 0 .3 0 .4-.1 2.6-.5 5-1.1 7.4-1.9 4.7-1.5 8.7-3.4 12.2-5.3 3.4-2 6.3-3.9 8.5-5.7 2.2-1.7 3.9-3.2 5-4.2s1.7-1.5 1.7-1.5c.5-.5.6-1.3.1-1.9-.5-.6-1.3-.6-1.9-.1 0 0-.6.5-1.7 1.5s-2.8 2.4-4.9 4c-2.2 1.6-4.9 3.5-8.2 5.4-3.3 1.8-7.2 3.6-11.7 4.9-2.2.7-4.6 1.3-7 1.7-2.5.5-5.1.8-7.7.9-.7 0-1.3.1-2 .1h-4.1c-.7 0-1.3-.1-2-.1-2.7-.3-5.5-.9-8.2-1.8-5.4-1.9-10.6-4.9-15.2-8.8-4.6-3.9-8.7-8.6-11.8-13.9-1.5-2.6-2.8-5.4-3.5-8.3l-.3-1.1c-.1-.4-.1-.7-.2-1.1-.1-.4-.1-.7-.2-1 0-.4-.1-.7-.1-1V391.2l.1-2.3c.2-6.1 1.2-12 2.9-17.6 1.7-5.5 4-10.7 6.7-15.3 2.6-4.7 5.5-8.9 8-13 .6-1 1.2-2 1.8-3.1.6-1 1.1-2 1.6-3.1.2-.5.5-1 .7-1.5l.6-1.5c.2-.5.4-1 .5-1.4v-.2l.1-.2.1-.4c.1-.2.1-.5.2-.7 1.1-3.8 1.7-7.1 2.2-9.9.5-2.7.9-4.9 1.1-6.4 0-.2.1-.4.1-.6 2.8 1.5 5.2 2.7 7.2 3.6 1.7 2.2 2.2 4.3 1.5 6.4-.3.9-.8 2.2-1.5 3.6-2.6 5.9-6.4 14.9-1.9 19.3.8.7 1.6 1.1 2.6 1.1 3.3 0 7.2-4.1 11.1-8.2 3.4-3.6 7-7.3 9.4-7.4 2.2-.1 5 1.1 7.9 2.4 4.8 2.2 10.3 4.6 15.7 2 5.5-2.7 4.7-10.1 4.1-16.7-.4-4.2-.8-8.1.4-10.1 1.1-1.8 3.6-3.7 6.4-5.8 5.5-4 12.3-9.1 14.7-17.7 2.6-9.4-2.9-15.3-7.3-20-1.9-2-3.5-3.8-4.2-5.4-1.1-3 .4-6.4 1.9-9.6 1.2-2.6 2.3-5 2-7.2-.1-1-.7-1.8-1.5-2.4-.9-.7-2.2-1-3.5-1.2l5.1-1.8c7-2.3 14.4-4.3 21.9-5.9l1.6-.3c3.3-.7 6.6-1.2 9.8-1.7 2-.3 3.9-.6 5.8-.8h.1c-5.8 8.8-10.5 16.7-12.7 20.5-.4.6-.2 1.5.5 1.8.6.4 1.5.2 1.8-.5 4.4-7.5 9.3-15.3 14.2-22.7 0-.1.1-.1.1-.2 11.8-17.6 23.9-32.4 30.2-32.4h.3c4.1-.9 8.1.2 11.8 3.1 6.4 5.1 17.1 20.4 17.1 65.4 0 .7.6 1.3 1.3 1.3.7 0 1.3-.6 1.3-1.3 0-34.2-6.4-58.2-18.1-67.5-4.3-3.4-9.1-4.7-13.9-3.7-5.7.1-14.2 8.2-26 24.5-2.1 2.9-4.1 5.8-6 8.7l-2.4.3c-1.9.2-3.8.5-5.9.9-3.3.5-6.6 1.1-9.9 1.8l-1.6.3c-7.6 1.6-15.1 3.6-22.2 5.9-2.9 1-5.8 2-8.8 3.1-3.1 1.2-6.2 2.5-9.2 3.8-2 .9-4 1.8-6.2 2.9-2.3 1.1-4.4 2.2-5.8 3l-4.3 2.3c-1.3.7-2.7 1.3-4 1.8-.7.3-1.5.5-2.2.6l-23.9-26.5c-.3-.3-.8-.4-1.1-.1-.3.3-.4.8-.1 1.1l22.1 26.1c-4.5.7-8.5.2-11.7-.3-.4-.6-1-1.6-1.9-2.9-2.6-4.1-7.4-11.8-10.5-17.8v-.2l-.2-.2c-1.2-2.3-2-4.2-2.3-5.5v-.2c.1-3.5 14.6-16.9 41.9-29.9.8-.4 1.7-.8 2.6-1.2l.3-.1c.5-.2 1.1-.5 1.7-.8 1-.5 2.1-.9 3.1-1.4l.1-.1c10.7-4.6 21.6-8.3 32.4-11.1 2-.5 3.8-.9 5.6-1.3 2-.5 4-.9 6.1-1.3.3-.1.6-.1 1-.2 5.9-1.1 11.9-1.9 17.7-2.4 1.1-.1 2.3-.2 3.4-.2 1.4-.1 2.6-.1 3.8-.2 1.6-.1 3.3-.1 5.1-.1 1.9 0 3.7 0 5.4.1 10.1.3 19.8 1.8 28.9 4.2 8.5 2.3 16.8 5.3 24.4 8.9 11.1 5.2 21.3 12 30.4 19.9l.4.3c2.3 2.1 4.5 4.1 6.6 6.2.7.7 1.4 1.5 2.1 2.2 19 20.3 28.3 42.7 32.9 58.1v.1c3 10.3 3.9 17.4 3.9 20 .1.9-.2 1.6-.7 2.2z"/></g></svg>