<svg xmlns="http://www.w3.org/2000/svg" xmlns:xlink="http://www.w3.org/1999/xlink" width="72" height="72" viewBox="0 0 72 72"><defs><circle id="b" cx="32" cy="32" r="32"/><filter id="a" width="121.9%" height="121.9%" x="-10.9%" y="-7.8%" filterUnits="objectBoundingBox"><feOffset dy="2" in="SourceAlpha" result="shadowOffsetOuter1"/><feGaussianBlur in="shadowOffsetOuter1" result="shadowBlurOuter1" stdDeviation="2"/><feColorMatrix in="shadowBlurOuter1" values="0 0 0 0 0 0 0 0 0 0 0 0 0 0 0 0 0 0 0.0599524457 0"/></filter></defs><g fill="none" fill-rule="evenodd"><g transform="translate(4 2)"><use fill="#000" filter="url(#a)" xlink:href="#b"/><use fill="#FFF" xlink:href="#b"/></g><path fill="#F25B3E" d="M35.744 44.264c-5.779 0-10.48-4.701-10.48-10.48 0-5.778 4.701-10.479 10.48-10.479 5.778 0 10.479 4.701 10.479 10.48 0 5.778-4.701 10.48-10.48 10.48m15.382-12.686c.23 0 .34.19.34.42v3.572c0 .23-.11.419-.34.419l-2.559.484a13.036 13.036 0 0 1-1.858 4.47l1.527 2.213a.42.42 0 0 1 0 .59l-2.526 2.524a.421.421 0 0 1-.592-.007l-2.214-1.54a12.981 12.981 0 0 1-4.47 1.833l-.484 2.588c0 .231-.19.32-.42.32h-3.572c-.23 0-.419-.089-.419-.32l-.484-2.537a13.02 13.02 0 0 1-4.47-1.86l-2.213 1.529a.419.419 0 0 1-.591 0l-2.524-2.526a.42.42 0 0 1 .005-.593l1.536-2.214a12.996 12.996 0 0 1-1.842-4.47l-2.604-.484c-.23 0-.351-.189-.351-.419V32c0-.23.12-.42.351-.42l2.57-.483c.339-1.62.98-3.129 1.858-4.47l-1.527-2.213a.42.42 0 0 1 0-.593l2.525-2.524a.42.42 0 0 1 .593.003l2.214 1.534a12.998 12.998 0 0 1 4.47-1.847l.484-2.614c0-.231.189-.372.42-.372h3.572c.23 0 .419.14.419.372l.483 2.59c1.62.339 3.13.98 4.47 1.859l2.213-1.528a.419.419 0 0 1 .592 0l2.523 2.526a.42.42 0 0 1-.004.593l-1.538 2.214c.878 1.34 1.5 2.85 1.839 4.47l2.598.483zm-15.381-2.546a4.757 4.757 0 0 0-4.752 4.751 4.757 4.757 0 0 0 4.752 4.752 4.757 4.757 0 0 0 4.75-4.752 4.757 4.757 0 0 0-4.75-4.75zm0 6.881a2.132 2.132 0 0 1-2.13-2.13c0-1.173.955-2.129 2.13-2.129 1.174 0 2.129.956 2.129 2.13s-.955 2.129-2.13 2.129z"/></g></svg>