<svg xmlns="http://www.w3.org/2000/svg" xmlns:xlink="http://www.w3.org/1999/xlink" width="72" height="72" viewBox="0 0 72 72"><defs><circle id="b" cx="32" cy="32" r="32"/><filter id="a" width="121.9%" height="121.9%" x="-10.9%" y="-7.8%" filterUnits="objectBoundingBox"><feOffset dy="2" in="SourceAlpha" result="shadowOffsetOuter1"/><feGaussianBlur in="shadowOffsetOuter1" result="shadowBlurOuter1" stdDeviation="2"/><feColorMatrix in="shadowBlurOuter1" values="0 0 0 0 0 0 0 0 0 0 0 0 0 0 0 0 0 0 0.0599524457 0"/></filter></defs><g fill="none" fill-rule="evenodd"><g transform="translate(4 2)"><use fill="#000" filter="url(#a)" xlink:href="#b"/><use fill="#FFF" xlink:href="#b"/></g><path fill="#FFD10E" d="M42.897 47.063H28.663c-.39 0-.673-.309-.673-.774v-5.598h15.58v5.598c0 .465-.282.774-.673.774zM28.663 19.99h14.234c.39 0 .673.294.673.664v17.678H27.99V20.654c0-.37.282-.664.673-.664zm17.897.708A3.698 3.698 0 0 0 42.862 17H28.698A3.698 3.698 0 0 0 25 20.698V46.35a3.698 3.698 0 0 0 3.698 3.698h14.164a3.698 3.698 0 0 0 3.698-3.698V20.698zM36.013 42.405h-.178c-.933 0-1.69.796-1.69 1.778s.757 1.778 1.69 1.778h.178c.933 0 1.69-.796 1.69-1.778s-.757-1.778-1.69-1.778"/></g></svg>