<svg xmlns="http://www.w3.org/2000/svg" xmlns:xlink="http://www.w3.org/1999/xlink" width="72" height="72" viewBox="0 0 72 72"><defs><circle id="b" cx="32" cy="32" r="32"/><filter id="a" width="121.9%" height="121.9%" x="-10.9%" y="-7.8%" filterUnits="objectBoundingBox"><feOffset dy="2" in="SourceAlpha" result="shadowOffsetOuter1"/><feGaussianBlur in="shadowOffsetOuter1" result="shadowBlurOuter1" stdDeviation="2"/><feColorMatrix in="shadowBlurOuter1" values="0 0 0 0 0 0 0 0 0 0 0 0 0 0 0 0 0 0 0.0599524457 0"/></filter></defs><g fill="none" fill-rule="evenodd"><g transform="translate(4 2)"><use fill="#000" filter="url(#a)" xlink:href="#b"/><use fill="#FFF" xlink:href="#b"/></g><path fill="#67D83D" d="M36.563 34.094c.336.336.483.789.444 1.227.04.439-.108.891-.444 1.227l-5.124 5.124c-.3.3-.694.45-1.087.45a1.537 1.537 0 0 1-1.087-2.624l4.176-4.177-4.176-4.176a1.537 1.537 0 1 1 2.174-2.174l5.124 5.123zm9.595 5.326a1.537 1.537 0 1 1 0 3.075h-7.444a1.537 1.537 0 1 1 0-3.075h7.444zm.081 6.311a1.456 1.456 0 1 1 0 2.913H26.358c-1.874 0-3.358-1.512-3.358-3.386V23.455C23 21.581 24.484 20 26.358 20h19.881a1.456 1.456 0 1 1 0 2.913H26.358c-.264 0-.445.279-.445.542v21.803c0 .263.181.473.445.473h19.881z"/></g></svg>